<svg id="Layer_1" data-name="Layer 1" xmlns="http://www.w3.org/2000/svg" viewBox="0 0 473.61 677.88"><defs><style>.cls-1{fill:none;stroke:#231f20;stroke-miterlimit:10;stroke-width:2px;}</style></defs><path class="cls-1" d="M775.76,559.83c0-21.92.08-31.17,0-44.3,0-2.95,0-3.11,0-4.31q0-43.39,0-86.79a22.37,22.37,0,0,0-.31-5.75,19.3,19.3,0,0,0-6.74-.65c-1.27.08-2.55.21-3.82.21q-42.95,0-85.87,0c-1.24,0-2.47-.2-3.57-.3-2.33-5.8-2.88-9.09-2.35-14.35,4.72-.29,9.5-.1,14.26-.14,5,0,9.92,0,14.88,0h43.17c5,0,9.91,0,14.87,0,4.76,0,9.53.14,14.32-.13,1-2.09.67-4,.68-5.9q0-27.33,0-54.66a31.13,31.13,0,0,0,0-3.35,22,22,0,0,0-.69-2.85H757.06c-5.75,0-11.51-.06-17.27,0s-11.43-.34-17.16.29c-.83,1.91-.57,3.68-.57,5.4,0,9.75,0,19.5,0,29.25,0,1.71.42,3.53-.71,5.14a6,6,0,0,1-1.38.31q-13.18,0-26.38,0a8.07,8.07,0,0,1-2-.6c0-6.66,0-13.19,0-19.72s.27-13-.24-19.87l-8-.39c-.5-1.17-2.13-1.87-1.17-3.94,1.93,0,4,0,6-.14a26,26,0,0,0,3.34-.63c0-1.86.06-3.45,0-5s.41-3.5-.7-5.32l-10.38-.27a17.89,17.89,0,0,1-.89-2.54c-.42-2.18-.81-4.38-1.09-6.59-.42-3.36-2.09-6.35-2.8-9.59-1.43-6.43-4.41-12.25-6.86-18.27-1.95-4.82-3.67-9.85-7.52-13.68-.42-.43-.53-1.15-.87-1.69-.82-1.35-1.7-2.66-2.54-4-3.59-5.64-8.57-10.26-11.75-16.2-.29-.53-.83-1.22-1.33-1.3-2.22-.32-2.79-2.19-4-3.58-3-3.37-6.83-5.92-9.81-9.34-4.1-1.46-6.62-5.16-10.43-7.16-3.15-1.66-5.52-4.73-9.17-5.72-1.08-1.57-2.84-1.91-4.47-2.54a12.78,12.78,0,0,1-3.38-1.76c-4-3.2-9.19-3.53-13.42-6.09-3.68-.49-6.73-2.71-10.25-3.74a68.62,68.62,0,0,0-8.25-2.19c-2.35-.39-4.64-1.13-7-1.68a22.41,22.41,0,0,0-4.65-1c-8.15-.21-16.3-.31-24.45-.36-2.38,0-4.77,0-6.64,2-.56.61-1.76.65-2.68.91-.77.21-1.78.12-2.29.59-2,1.85-4.4,2.44-7,2.78-.32,0-.66.62-.82,1a.94.94,0,0,0,.4.8c3.65,1.88,7.18,3.93,10.64,6.16a23,23,0,0,1,3.76,2.85c1.7,1.68,3.29,3.48,5,5.1a59.52,59.52,0,0,1,11.17,14.84c2.65,4.68,4.45,9.85,6.6,14.82a11.35,11.35,0,0,1,.5,1.84c.79,3.26,1.52,6.53,2.37,9.76.42,1.57.85,3.09,0,4.67-2,1.69-4.66.48-6.93,1.61-.11,1.19-.22,2.28-.31,3.37-.25,3.18-.47,6.36-.75,9.53a2,2,0,0,1-2.22,2,4.14,4.14,0,0,1-2.31-.44c-3-2.57-6.65-3.5-10.42-4.16a7.62,7.62,0,0,1-1.59-.65,16.68,16.68,0,0,0-8.48,4.57,8.15,8.15,0,0,1-2.57,2.07,7.78,7.78,0,0,0-4.72,3.74,3.48,3.48,0,0,1-1.34,1.35c-2.22,1.16-3.53,3.17-5,5a21.38,21.38,0,0,1-2.07,2,27.44,27.44,0,0,0-2.71,2.68c-2.26,2.87-4.42,5.8-6.61,8.71a5.16,5.16,0,0,0-1,1.61c-.81,3.28-3.18,5.43-5.42,8-3.34,0-6.69-.08-10,0s-6.64-.47-10,.47a41.06,41.06,0,0,0,.18,10.44c1.49.1,2.89.24,4.29.28,3,.09,6.06.11,9.09.21.2,0,.39.41.78.85-.58,1-1.22,2-1.89,3.09-3.38,0-6.57,0-9.76,0a17,17,0,0,0-2.9.58v5.45c0,9.75,0,19.5,0,29.25,0,1.56.38,3.19-.73,4.94a76,76,0,0,1-9.34.2c-3.36.05-6.72.09-10.08,0-3.14-.09-6.33.45-9.73-.53-.06-1.87-.17-3.6-.17-5.32,0-10.07,0-20.14,0-30.21,0-1.38.4-2.9-.91-4.15a13.9,13.9,0,0,0-1.8-.21q-24,0-48,0a17.27,17.27,0,0,0-2.46.38c-.07,1.8-.19,3.37-.19,4.94,0,10.23,0,20.46,0,30.69,0,1.38.39,2.89-1.06,4.43-4.48,0-9.26.09-14,0s-9.5.49-14.53-.47c-.07-1.93-.19-3.66-.2-5.38,0-9.91,0-19.82,0-29.73,0-1.54.46-3.22-.85-4.57a8.57,8.57,0,0,0-1.4-.25q-24.23,0-48.45,0a14.16,14.16,0,0,0-2.46.47,30.25,30.25,0,0,0-.39,3.41q0,30,0,59.94a20.46,20.46,0,0,0,.43,2.94c2.15,0,4,.09,5.94.09H469.2c1.6,0,3.21-.07,4.8,0a18.58,18.58,0,0,1,2.81.65c-.18,4.64.44,9.08-.21,14.12h-6.2q-76,0-152.07,0c-2.23,0-4.46-.16-6.7-.22s-4.44-.18-6.8,1v6.19c0,84.1-1.46,117.18.05,171.66.74,26.82,2.11,55.68,11.55,84.77,4.53,13.94,10.74,27.65,10.74,27.65a272.56,272.56,0,0,0,22.45,40,298.92,298.92,0,0,0,23.28,29.8,268.06,268.06,0,0,0,28.85,28c5.76,4.81,11.5,9.68,17.57,14.07a341.22,341.22,0,0,0,35.46,22.7A362.71,362.71,0,0,0,487.41,860a404.09,404.09,0,0,0,46.32,16.73c3.72,1.08,7.43,1.83,11.28.54,3.17-1.06,6.4-1.93,9.59-3,9.87-3.17,19.65-6.61,29.25-10.5a365.4,365.4,0,0,0,42.35-20.14,349.68,349.68,0,0,0,33.06-21.17,315.28,315.28,0,0,0,31-25.61,289.1,289.1,0,0,0,32.26-36,260.64,260.64,0,0,0,17.6-26.25A224.73,224.73,0,0,0,754.27,707c3.27-8,6.4-16,9.26-24.13a236.81,236.81,0,0,0,6.83-24.39,233.17,233.17,0,0,0,4.19-23.91c1-8,1-16.23,1.14-24.36.16-12.62,0-25.25,0-37.88C775.73,571.83,775.74,567.83,775.76,559.83Zm-118.6-70.47-.85-.62-.62-.47a57.1,57.1,0,0,1-5.57-5.06L649,482c-.38-.4-.76-.81-1.13-1.22s-.7-.77-1-1.17l-1-1.2-1-1.22-1-1.26c-.48-.6-1-1.21-1.43-1.82-1.54-2-3-4.09-4.42-6.18-.45-.68-.9-1.36-1.33-2-.22-.34-.44-.68-.65-1s-.41-.68-.62-1c-.55-.9-1.07-1.8-1.57-2.68-.24-.41-.47-.83-.68-1.23l-.4-.75c-.31-.57-.6-1.14-.87-1.69s-.43-.87-.63-1.29l-.06-.13c-.14-.29-.26-.58-.39-.86l-.49-1.12c-.23-.56-.43-1.09-.63-1.62-.07-.17-.14-.35-.2-.52a59.91,59.91,0,0,1,6.12.92c.53.1,1.08.22,1.63.34l1.67.38c1.67.4,3.39.86,5.12,1.38,1.16.34,2.32.71,3.49,1.1s2.34.8,3.51,1.23,2.33.87,3.48,1.34c2.6,1.05,5.16,2.18,7.6,3.37.54.27,1.07.53,1.6.81,1.07.55,2.11,1.1,3.12,1.66.75.42,1.48.84,2.19,1.29l1.41.87.68.44c.45.28.89.57,1.32.89s.64.44.95.67c1.14.82,2.19,1.65,3.14,2.47.69.6,1.33,1.2,1.91,1.81h0a4.17,4.17,0,0,1-.37.36l-.33.29a26.68,26.68,0,0,1-3.12,2q-.53.33-1,.69a4.91,4.91,0,0,0-.51.39c-1.69,1.46-3.46,2.83-5.05,4.4a53.73,53.73,0,0,0-4.09,4.68c-1.39,1.72-2.67,3.52-4,5.25A26,26,0,0,1,657.16,489.36Zm-59.87-57.5a.34.34,0,0,1,.12.12.54.54,0,0,1,.07.13.37.37,0,0,1,0,.11l.06.18a3.44,3.44,0,0,0,.14.42,5.52,5.52,0,0,1,.34.88,3.5,3.5,0,0,1,.14.46c0,.15.09.31.13.46.12.5.25,1,.38,1.48,0,0,0,0,0,0,.27,1,.54,2,.83,2.93l.45,1.46c.31,1,.62,1.93,1,2.89h0c.33,1,.67,1.91,1,2.86.71,1.9,1.46,3.78,2.25,5.66.39.93.79,1.86,1.21,2.79s.84,1.85,1.27,2.78c.79,1.69,1.6,3.37,2.44,5,.07.15.14.29.22.44.34.66.69,1.32,1,2l.25.47c.32.6.64,1.19,1,1.77s.48.87.74,1.3a10.11,10.11,0,0,0,.51.89.3.3,0,0,0,.06.11c.3.52.6,1,.92,1.56.61,1,1.25,2.07,1.9,3.09l.66,1c.32.51.66,1,1,1.52s.54.8.82,1.21c.75,1.1,1.52,2.18,2.31,3.25l1,1.26c.44.59.89,1.18,1.35,1.76s.78,1,1.18,1.48c1.63,2,3.34,4,5.13,5.9l.09.1h0c.25.28.51.55.78.83.51.55,1,1.09,1.57,1.63a3.07,3.07,0,0,1,.36.45,2.83,2.83,0,0,1,.23.34l.3.46.26.38a1.43,1.43,0,0,0,.15.22l.17.24h0l-1.15-.39-1.58-.54-4.07-1.38-.84-.29q-3-1-6-1.74c-.75-.18-1.51-.36-2.27-.52s-1.52-.32-2.28-.47-1.52-.27-2.29-.39l-1.92-.29-1.92-.25-1.12-.13-1.7-.17-1.81-.15c-1-.08-2.07-.15-3.11-.2a152.83,152.83,0,0,0-24.85.83l-.93.08a14,14,0,0,1-1.45,0h-.11l-.21-.09c-.19-.1-.41-.27-.72-.45a19.62,19.62,0,0,1,.94-3c3.24-6.58,6.54-13.13,9.81-19.69,1.81-3.64,3.67-7.25,5.44-10.9.59-1.22,1.17-2.44,1.74-3.67.31-.67.6-1.35.88-2,.19-.46.37-.92.54-1.39.34-.91.65-1.84.94-2.77.45-1.41.83-2.83,1.18-4.26.17-.71.34-1.43.5-2.15.26-1.16.5-2.32.73-3.48.06-.29.11-.57.17-.86s.12-.61.19-.92l.39-1.8c.06-.29.13-.58.19-.86l.24-.06.26,0a.8.8,0,0,1,.23,0A.39.39,0,0,1,597.29,431.86Zm12.58,98.44-1,.78a63,63,0,0,1-10.44,6.18l-1,.46-1.38.6c-.45.19-.9.38-1.36.55l-.72.28-.94.35-1.22.43a95.77,95.77,0,0,1-24.85,4.81l-2.78.17-2.78.16c-1.85.1-3.71.19-5.56.27l-3.71.15c-.24,0-.49,0-.73,0-1.1,0-2.2,0-3.29-.06l-1.23-.08c-.3,0-.61,0-.91-.08l-.57-.06c-.83-.08-1.65-.18-2.47-.31-.34,0-.69-.09-1-.15l-1.23-.2-1.64-.3-1.64-.32a26.37,26.37,0,0,1-2.78-.72c-4.39-1.41-5.45-4.1-2.9-8l.33-.48c.11-.16.22-.31.34-.46.23-.31.48-.61.73-.9l.53-.58.54-.55c.18-.19.37-.37.56-.55.38-.36.76-.7,1.15-1,.6-.52,1.21-1,1.83-1.48h0c.62-.47,1.26-.92,1.9-1.36h0c.64-.42,1.3-.83,2-1.23l.76-.43c.25-.15.51-.29.77-.43.51-.27,1-.54,1.54-.8l1.63-.77.48-.22c.53-.24,1.06-.47,1.6-.69.31-.14.63-.27.95-.39l1-.38,1.91-.73c.29-.11.57-.21.86-.3l.85-.28,1.21-.37c1.65-.49,3.33-.91,5-1.34.89-.23,1.78-.46,2.66-.71a2,2,0,0,1,.35-.07,3.87,3.87,0,0,0,.78-.19l.23-.11a1.82,1.82,0,0,0,.78-1,.43.43,0,0,0,0-.11.59.59,0,0,0-.08-.3,1.56,1.56,0,0,0-.3-.44l-.12-.12-.14-.1a.38.38,0,0,0-.13-.06c-.19-.06-.38-.1-.57-.14a7.61,7.61,0,0,0-1.18-.13l-.6,0c-1.15,0-2.3,0-3.44,0l-1.4,0-.69,0-1.15.05-1.54.09-1.53.12-.57.05c-.62.06-1.24.12-1.86.2-.44,0-.88.1-1.31.16l-1,.14c-1.21.18-2.41.4-3.6.65-.79.15-1.57.33-2.35.53s-1.82.31-3.34.56h0l.28-.39c.47-.68.77-1.18,1.1-1.58a1.46,1.46,0,0,1,.16-.19l.17-.18q.67-.64,1.38-1.26c.47-.41.95-.81,1.43-1.19.85-.68,1.73-1.31,2.64-1.91.19-.14.39-.27.59-.39l.17-.11c.38-.25.78-.49,1.17-.72s.92-.53,1.38-.78c.14-.06.27-.14.41-.21,1-.56,2.1-1.06,3.18-1.53,14.47-6.21,29.39-8.39,44.93-4.92h0c1.23.27,2.43.6,3.63,1l1.19.4a42.22,42.22,0,0,1,4.62,1.94l.15.08a1.84,1.84,0,0,1,.27.23c.12.11.23.24.37.39l.22.22.26.25a9.79,9.79,0,0,1-1,.42l-.45.16a19.66,19.66,0,0,1-2,.51l-1.14.22c-1,.19-2,.37-3,.65a10,10,0,0,0-1.3.45c-.21.09-.42.19-.62.3a5.32,5.32,0,0,0-.61.35,5.56,5.56,0,0,0-.58.41.1.1,0,0,0,0,.05s0,0,0,.06a.67.67,0,0,0-.06.27c0,.05,0,.1,0,.16s0,.16,0,.24a4.4,4.4,0,0,1,0,.45l2,.64c.4.13.81.25,1.21.36l2.42.68c.81.22,1.62.45,2.41.71.4.12.8.25,1.19.4a19.07,19.07,0,0,1,2.3.93,14.16,14.16,0,0,1,1.4.76,6.49,6.49,0,0,1,.62.39,12.34,12.34,0,0,1,1.57,1.26,8.13,8.13,0,0,1,.8.89,8.35,8.35,0,0,1,.62.93,7.31,7.31,0,0,1,.43,1,4.42,4.42,0,0,1,.15.48,6.48,6.48,0,0,1,.17,1c0,.17,0,.34,0,.51s0,.29,0,.44,0,.24,0,.35a2.17,2.17,0,0,1,0,.25,4.88,4.88,0,0,1-.12.55,2.64,2.64,0,0,1-.12.4c0,.12-.08.23-.13.35a7.2,7.2,0,0,1-.39.85,2.82,2.82,0,0,1-.21.38c0,.06-.07.11-.1.16-.15.23-.3.45-.47.68l-.26.33c-.1.13-.21.25-.32.38a2,2,0,0,1-.24.26,3.25,3.25,0,0,1-.41.42,5.76,5.76,0,0,1-.44.41C610.53,529.78,610.21,530,609.87,530.3Zm-89.25-33.54c-.45-.63-.87-1.28-1.27-1.93-.78-1.27-1.49-2.56-2.16-3.87-.17-.33-.33-.66-.49-1-.32-.66-.63-1.33-.93-2-.19-.42-.37-.85-.55-1.27-.25-.59-.49-1.19-.72-1.79s-.52-1.38-.77-2.07c-.5-1.39-1-2.8-1.39-4.21a8.51,8.51,0,0,1,0-2.12h0l.67.25.32.11.58.21.26.11a3,3,0,0,1,.52.23A31.13,31.13,0,0,0,518,479c.28.12.57.23.85.33.84.29,1.67.55,2.51.77.56.15,1.13.28,1.69.38a27.44,27.44,0,0,0,6.39.45l.54,0a6.44,6.44,0,0,0,.75-.05c.35,0,.72-.07,1.07-.12l.23,0c.38-.05.75-.1,1.13-.17s.84-.15,1.25-.24.84-.18,1.26-.29c.21-.05.42-.1.64-.17l.61-.17q1.35-.39,2.7-.9c1-.37,2-.78,3-1.22.46-.2.9-.41,1.35-.62.3-.13.59-.27.88-.42,2.06-1,4-2.14,6-3.35.51-.32,1-.64,1.52-1l.64-.41,4.78-3c0,.17,0,.32,0,.46a3.07,3.07,0,0,1,.06,1.32c-.53,1.32-1.08,2.62-1.67,3.91-.22.5-.45,1-.69,1.49s-.56,1.17-.86,1.75q-.24.5-.51,1c-.26.51-.53,1-.81,1.51s-.55,1-.84,1.49c-.45.78-.91,1.54-1.38,2.29-.29.47-.59.94-.91,1.4s-.61.93-.94,1.38-.61.87-.92,1.29l-.11.15c-.3.43-.62.85-1,1.26s-.56.74-.86,1.1-.48.58-.73.88c-.52.64-1.07,1.28-1.63,1.9a84.54,84.54,0,0,1-7,6.43,11.58,11.58,0,0,1-2,1.29c-5.23,2.79-8.36,2-12.48-2l-.46-.46A19.08,19.08,0,0,1,520.62,496.76Zm-21.46,21.11h-.05l-.15,0-.13,0a4.64,4.64,0,0,0-1.07.38l-.68.29-.45.18c.9.7,1.43,1.22,2,1.56l.24.13c1.22.63,2.47,1.22,3.71,1.82a67.7,67.7,0,0,1,6.09,3.19,28.91,28.91,0,0,1,3.3,2.37c.52.44,1,.89,1.51,1.37s.95,1,1.38,1.47c.16.19.31.37.44.56,0,0,0,0,0,0a8.42,8.42,0,0,1,.71,1.09s0,0,0,0a4.55,4.55,0,0,1,.26.55,4.68,4.68,0,0,1,.18.48c0,.11.07.23.1.34a3.47,3.47,0,0,1,.14.7.55.55,0,0,1,0,.18,3.55,3.55,0,0,1,0,.46,4.4,4.4,0,0,1-.06.73,4.74,4.74,0,0,1-.18.72,3.38,3.38,0,0,1-.22.52,3.63,3.63,0,0,1-.28.51,3.15,3.15,0,0,1-.22.33l-.16.2-.16.19-.26.27a6.15,6.15,0,0,1-.53.49,3.65,3.65,0,0,1-.31.24c-.14.11-.29.21-.44.31a9.53,9.53,0,0,1-1,.58,27.85,27.85,0,0,1-7.67,2.57c-9,1.65-18.13,1.49-27.23.64a82.66,82.66,0,0,1-18.33-3.47c-.6-.2-1.19-.4-1.78-.62L457,539l-.87-.34c-1.55-.63-3.08-1.31-4.59-2l-1.13-.55a14.29,14.29,0,0,1-1.38-.77,9.18,9.18,0,0,1-1.8-1.47,3.8,3.8,0,0,1-.33-.37l-.07-.09c-.1-.13-.2-.26-.29-.4l0,0c-.1-.15-.2-.31-.29-.47a3.85,3.85,0,0,1-.24-.5,4.3,4.3,0,0,1-.3-1,2.32,2.32,0,0,1-.07-.38v0a.77.77,0,0,1,0-.15,3.87,3.87,0,0,1,0-.48v-.06a4.41,4.41,0,0,1,0-.52,4.22,4.22,0,0,1,.1-.65c0-.16.08-.32.13-.47a3.45,3.45,0,0,1,.2-.48,4,4,0,0,1,.24-.46h0c.08-.14.18-.28.28-.42a7.11,7.11,0,0,1,.73-.83l.34-.31c.13-.12.27-.23.41-.34a4.48,4.48,0,0,1,.44-.32,8,8,0,0,1,.92-.59c.47-.28,1-.54,1.45-.79s.83-.41,1.25-.6.64-.29,1-.42l0,0,.79-.32c.77-.31,1.54-.59,2.33-.84.3-.11.61-.2.91-.29.72-.23,1.44-.43,2.17-.61.56-.15,1.11-.29,1.67-.42s1.12-.26,1.68-.38c2-.42,4.09-.49,6.29-1.67-.44-.43-.74-.91-1.07-1.16a.67.67,0,0,0-.32-.17c-.74-.15-1.48-.31-2.22-.44a36.56,36.56,0,0,0-3.9-.54,43.18,43.18,0,0,0-4.41-.06l-2.25,0a1.25,1.25,0,0,1,0-.61.91.91,0,0,1,.22-.45,3.46,3.46,0,0,1,1-.7,47.5,47.5,0,0,1,18.71-5.57q.86-.07,1.71-.12l1.13-.06,1.13,0c1.51-.06,3-.07,4.49,0,.54,0,1.08,0,1.61.06l.57,0c.6,0,1.19.07,1.79.13s1.31.11,2,.19,1.31.15,2,.25,1.46.22,2.18.36,1.13.19,1.7.32,1.28.27,1.92.43,1.21.29,1.81.46l.13,0c.63.17,1.26.35,1.88.55s1.26.39,1.89.61l1.56.57c.65.23,1.3.49,1.94.76s1.11.46,1.66.71c.34.15.69.3,1,.47,1,.47,2,1,3.05,1.52l.93.54.38.24a3.87,3.87,0,0,1,.37.24l.74.5c.39.26.78.55,1.16.84l.59.42.58.42a1.3,1.3,0,0,1,.31.31c.2.24.4.57.7,1l.22.32.25.34h0c-2.32-.58-4-1-5.64-1.41-1.1-.3-2.21-.55-3.32-.76l-1.06-.19c-.49-.08-1-.16-1.47-.22l-1.48-.17-1.49-.12C502.15,517.85,500.66,517.83,499.16,517.87ZM486.23,495c-1,.07-2.05.15-3.07.25l-1.53.17c-4.09.5-8.12,1.39-12.64,2.19,0-.3.08-.61.14-.91v0c0-.08,0-.16.05-.24,0-.25.1-.5.16-.76s.06-.27.1-.42.12-.47.19-.71.09-.31.14-.46a29.16,29.16,0,0,1,2.8-6.31c.25-.44.51-.87.78-1.3a41,41,0,0,1,3.08-4.23c.84-1,1.74-2,2.68-2.95l.95-.92c.17-.17.34-.32.51-.47l.83-.74.82-.7a34.29,34.29,0,0,1,3.13-2.33c.43-.3.86-.58,1.3-.83l.9-.53a26,26,0,0,1,3.41-1.65c.22-.1.43-.18.65-.26s.72-.26,1.08-.37l.15,0a18.73,18.73,0,0,1,2-.52,8.84,8.84,0,0,1,.89,2.49,79,79,0,0,1,0,8.14c-.05.92-.11,1.83-.19,2.75s-.15,1.83-.24,2.75c-.17,1.83-.37,3.66-.56,5.48q0,.35-.12.69a6.93,6.93,0,0,1-.2.71l-.18.56c-.06.2-.13.4-.19.61s-.09.28-.13.43C491.38,494.68,488.8,494.78,486.23,495ZM346.8,574.36a7.63,7.63,0,0,1,.06-2.53c.05-.27.1-.53.17-.8s.14-.52.22-.78.1-.33.16-.49.1-.32.16-.48c.17-.5.35-1,.54-1.49s.43-1.11.66-1.66c.06-.15.12-.3.19-.44.47-1.12,1-2.2,1.54-3.25.24-.48.49-.94.75-1.4.58-1,1.2-2,1.85-3,.32-.49.66-1,1-1.46s.63-.86.95-1.28.52-.67.8-1,.47-.57.71-.85.58-.67.88-1,.75-.82,1.14-1.22l.17-.17c.39-.4.78-.79,1.19-1.17s.88-.83,1.33-1.23q1.35-1.22,2.82-2.34c.43-.33.87-.66,1.31-1s.88-.64,1.33-.94.9-.62,1.35-.91c1.35-.88,2.74-1.71,4.15-2.48l1.83-1a4,4,0,0,1,.41-.21c.6-.3,1.21-.59,1.82-.87q1.18-.56,2.4-1.05c.59-.25,1.18-.49,1.78-.72l1.48-.55,1.18-.42.53-.17c.55-.19,1.11-.37,1.67-.54l1.84-.55,2-.55,2.05-.52,1-.24,1-.23,1.35-.29,1.59-.3,1.43-.25c.55-.09,1.11-.17,1.66-.24,1.23-.18,2.47-.31,3.71-.41l.65,0,1.12-.07c.4,0,.81,0,1.21-.06a5.32,5.32,0,0,0,.56-.06l.42-.1.69-.2.28-.08.27-.08h0a2.48,2.48,0,0,0-.07-.63c0-.13-.07-.26-.11-.38a2.08,2.08,0,0,0-.39-.65,2.5,2.5,0,0,0-.23-.23,4,4,0,0,0-.4-.28l-.38-.19-.37-.15-.25-.09-.25-.09c-1.37-.47-2.75-.89-4.14-1.25l-1.05-.26c-.43-.11-.85-.2-1.28-.29l-1.3-.25c-.65-.12-1.29-.22-1.94-.31l-.29,0c-.47-.06-.93-.12-1.4-.16l-.33,0c-.67-.07-1.33-.11-2-.14H392c-.25,0-.51,0-.76,0-.94,0-1.88,0-2.82,0h-.54c-.74,0-1.54,0-2.64,0a21.41,21.41,0,0,1,.9-2.56,38.33,38.33,0,0,1,2.9-4.75c.22-.31.44-.62.67-.92l.36-.46q.52-.68,1.08-1.32c.18-.22.37-.43.56-.64.56-.64,1.15-1.26,1.76-1.85.32-.33.65-.64,1-.95s.68-.61,1-.91l.88-.73c.21-.18.43-.35.65-.52.39-.31.78-.61,1.19-.9l.78-.56c.67-.47,1.36-.93,2.07-1.37a59.49,59.49,0,0,1,40.88-8.53q.7.1,1.41.24c.51.1,1,.21,1.53.34l.72.19.71.21c.48.15,1,.3,1.42.48s.93.34,1.39.54.92.4,1.37.61h0c.9.43,1.78.9,2.65,1.41l.12.09a1.47,1.47,0,0,1,.3.45c.13.25.26.56.46.89l-1.65.31-1.38.29c-.49.11-1,.22-1.46.35l-1.51.4-.63.17-1.31.4c-1,.32-2,.67-3,1.05-1.3.5-2.55,1-3.77,1.66-.32.15-.64.31-.95.48-1,.5-1.93,1.05-2.85,1.62l-.83.53c-.34.21-.67.44-1,.67s-.53.37-.79.57c-.87.62-1.7,1.28-2.52,2l-1,.87c-.73.65-1.43,1.34-2.11,2l-.44.46-.44.48c-.22.24-.44.48-.65.73-.44.5-.86,1-1.26,1.54-.2.23-.38.47-.56.71q-1.31,1.71-2.46,3.58-.42.66-.81,1.35c-.26.45-.52.9-.76,1.36a.41.41,0,0,0-.06.11c-.25.45-.48.9-.71,1.36s-.45.9-.66,1.36c-.49,1-1,2.1-1.39,3.2a27,27,0,0,1-3.5,1.13c-.62.12-1.23.24-1.83.38l-1.19.28c-.51.13-1,.26-1.52.41l-1,.28c-.94.28-1.86.58-2.76.92l-.85.32c-.76.29-1.51.6-2.24.93-.44.19-.87.39-1.3.6l-1,.48c-1.18.59-2.33,1.23-3.46,1.92-.51.3-1,.62-1.5.94s-1,.66-1.47,1-.93.66-1.39,1-.91.7-1.36,1c-.66.52-1.3,1.06-1.93,1.6s-1.26,1.11-1.87,1.69l-.92.89q-.45.43-.9.9c-.83.84-1.63,1.7-2.41,2.58-.22.24-.43.49-.64.73l-.63.74c-.5.58-1,1.17-1.46,1.77-1.49,1.87-2.86,3.84-4.22,5.82a4.86,4.86,0,0,1-3,2.26c-8.69,1.86-16.57,5.72-24.4,9.73a1.6,1.6,0,0,1-.72.12C347.44,574.36,347.14,574.34,346.8,574.36ZM615.69,414.22c0-.65.12-1.3.12-1.93l.48-.54c.64-.7,1.27-1.35,1.86-2l.53-.63q.36-.44.69-.9c.16-.23.31-.47.45-.71s.21-.38.32-.57c.27-.49.52-1,.79-1.59.13-.28.27-.58.42-.88s.3-.62.47-.95h7.33a3.42,3.42,0,0,1,1,.13,3,3,0,0,1,1.27.68,1.88,1.88,0,0,1,.25.24l0,.05a3.58,3.58,0,0,1,.28.37,4.6,4.6,0,0,1,.25.44,29.41,29.41,0,0,0,7.95,9.77h0a1.93,1.93,0,0,1,.24.25,3,3,0,0,1,.22.28,6.25,6.25,0,0,1,.38.61c.05.1.11.2.15.3s.18.42.26.63h0l.14.32h0c-3.29.84-18,1.05-24.78.36a3.91,3.91,0,0,1-.52-.67,3,3,0,0,1-.16-.31,2.41,2.41,0,0,1-.21-.5c0-.1-.06-.19-.08-.29a1.65,1.65,0,0,1-.06-.32,1.84,1.84,0,0,1,0-.41,1.62,1.62,0,0,1,0-.31.28.28,0,0,1,0-.09A5.79,5.79,0,0,1,615.69,414.22Zm-44-134.94c0-.31.06-.62.1-.94s.07-.63.12-.94l.15-.95c.3,0,.6,0,.92.08l.18,0,.73.1.54.1.14,0c.26,0,.53.1.8.16l.59.14.55.14c.71.18,1.46.4,2.22.65l1,.32.76.28,1.07.4,1.1.43c.88.36,1.78.75,2.69,1.17s1.81.85,2.72,1.32c.46.23.91.46,1.37.71l1,.55c.39.21.79.43,1.18.66l1.17.67,1.32.79c.43.27.86.53,1.29.81h0c.42.27.84.54,1.25.83.83.56,1.64,1.12,2.42,1.69.58.42,1.15.85,1.69,1.29a40.67,40.67,0,0,1,3.44,3l.53.53a23.21,23.21,0,0,1,1.8,2.09l.37.51c.12.17.23.33.33.5s.21.33.3.49a3.59,3.59,0,0,1,.21.38h0l-2.89-1.44L602,294.44c-.93-.46-1.86-.91-2.79-1.34s-1.86-.83-2.81-1.2c-.48-.19-1-.37-1.45-.54l-1.52-.54-1.42-.47-1-.33-1.37-.41-2.06-.58c-1-.27-2-.51-3-.74-3-.68-6.07-1.07-9.19-1.49l-3.14-.45a16.62,16.62,0,0,1-.53-2.89c0-.13,0-.27,0-.4s0-.25,0-.38a22.25,22.25,0,0,1,0-2.45C571.64,279.91,571.67,279.6,571.7,279.28Zm-4.42,17.52.19-.12c.32-.21.52-.38.69-.48a.51.51,0,0,1,.15-.07.31.31,0,0,1,.13,0c1.46,0,2.92,0,4.38,0,.84,0,1.67,0,2.51.06h0l1.25.07,1.72.16c.57.06,1.14.12,1.71.2s1.14.14,1.7.23a56.8,56.8,0,0,1,6.76,1.45c.55.14,1.09.3,1.64.48l.21.07,1,.32c.95.32,1.89.67,2.82,1.06.27.1.53.21.79.33.42.18.84.36,1.26.56l.58.28c.37.17.74.36,1.11.55s1,.51,1.45.78.78.44,1.16.67c.22.12.44.26.66.4.39.23.77.48,1.15.73a30.92,30.92,0,0,1,7.8,7c2.51,3.32,2.31,6.5-.53,9.5a10.42,10.42,0,0,1-1.09,1l-.47.33-.49.3-.45.23-.36.16a6.68,6.68,0,0,1-1.42.43l-.6.09c-.21,0-.41,0-.62,0a7.22,7.22,0,0,1-4.06-1.32,9.93,9.93,0,0,1-.86-.63,10.5,10.5,0,0,1-.82-.7c-.18-.15-.36-.32-.53-.49q-1.66-1.62-3.37-3.17c-.56-.52-1.14-1-1.71-1.55l-1.6-1.4-1-.9-1.5-1.25c-1.38-1.15-2.79-2.27-4.21-3.36l-1.73-1.31-1.17-.88-1.33-1c-1.24-.9-2.5-1.78-3.76-2.65h0q-1.9-1.31-3.84-2.55c-1.3-.84-2.6-1.66-3.92-2.46a10.27,10.27,0,0,1-1.31-1.17h0ZM488.82,354a112.51,112.51,0,0,1,6.55-21,122.13,122.13,0,0,1,12.3-21.62,2.94,2.94,0,0,1,2-1.24c-.34,1.35-.64,2.71-1,4A75.39,75.39,0,0,0,506,329.71a3.25,3.25,0,0,0,.21,1.38,1,1,0,0,0,.69.53,1,1,0,0,0,.8-.35c.65-1.45,1.25-2.93,1.82-4.41a101.29,101.29,0,0,1,20.75-33.07c1.18-1.26,2.47-2.42,3.57-3.48,30.61,9,64.36,38.32,76.55,66-1,.51-1.36-.45-1.89-.92-2.87-2.52-5.63-5.2-8.62-7.58-2.18-1.75-3.45-1.42-5.2.89a70.9,70.9,0,0,0-9.27,17.25,154.43,154.43,0,0,0-8.82,36.69c-.79,6.17-1.44,12.37-1.85,18.58a12.82,12.82,0,0,1-.48,2.77,4.81,4.81,0,0,1-.16.54A17.55,17.55,0,0,1,572,428.7c-.35.52-.69,1-1,1.55s-.71,1-1.08,1.52c-.64.88-1.3,1.74-2,2.57-.36.46-.72.9-1.1,1.34s-.68.8-1,1.2c-.79.9-1.61,1.79-2.45,2.66l-1.21,1.23-.27.26c-.49.49-1,1-1.51,1.44-.24.23-.48.46-.73.68-.65.59-1.3,1.17-2,1.74l-.06.05c-.74.63-1.48,1.25-2.24,1.86l-.11.09c-.77.61-1.54,1.22-2.33,1.81a105.46,105.46,0,0,1-20.65,12,4.62,4.62,0,0,1-1.24.09,5.47,5.47,0,0,1,0-1.67c.23-.72.46-1.45.68-2.17s.41-1.36.61-2l.3-1.07q.27-.94.51-1.89c.16-.61.32-1.23.47-1.84.34-1.36.66-2.72.95-4.08q.24-1.1.45-2.19c.45-2.23.83-4.47,1.16-6.71.11-.7.21-1.4.3-2.11,0,0,0-.05,0-.07s0-.09,0-.13c0-.3.08-.6.11-.9s.09-.69.13-1c0,0,0-.05,0-.07v0l0-.26.09-.78c0-.38.09-.77.13-1.15q.12-1.11.21-2.22c.06-.62.11-1.25.16-1.88.07-.86.13-1.71.18-2.57a192.38,192.38,0,0,0-.18-25.4c-.24-3.33-.43-6.67-.65-10.1a13.87,13.87,0,0,1,2.43-1.62A66.71,66.71,0,0,0,560.79,373a8,8,0,0,1,1.42-.8c2.42,4.35,1.45,9.37,2.76,13.66,1.7.39,2.08-.58,2.27-1.49a72.53,72.53,0,0,0,1.27-7.55c.88-9.75.8-19.46-1.31-29.08-.94-4.31-1.62-4.57-5.26-2a143.6,143.6,0,0,1-33.25,17.84c-2.7,1-5.46,1.76-8.18,2.67-1.19.39-2.35.87-3.63,1.35-.21,1.39-.52,2.63-.58,3.88-.43,8.94-.79,17.89,1.47,26.68.64,2.51.41,4.59-1.74,6.45-2.87,2.49-5.5,5.26-8.43,8.11-.35-.52-.87-1-.94-1.48-.81-5.69-1.74-11.37-2.26-17.08a207.1,207.1,0,0,1,.11-36.85c.12-1.38,0-2.79,0-4.64-.83.44-1.59.58-1.76,1-.75,1.76-1.37,3.57-2,5.38a28,28,0,0,1-2.55,6.34c-3.82-1.78-6.54-4.65-9.11-7.68C488.22,356.53,488.55,355.23,488.82,354Zm-1.68,38.81a58.43,58.43,0,0,1,1.28-12.64c2,2.9,3.71,5,5.08,7.31a8.16,8.16,0,0,1,.89,3.65c.28,4.61.44,9.23.62,13.85.25,6.35.6,12.69,1.09,19,.11,1.37.22,2.75.35,4.12s.23,2.47.36,3.7c.17,1.8.37,3.6.58,5.4.07.55.13,1.11.2,1.67a.45.45,0,0,0,0,.11c.14,1.2.3,2.41.46,3.61.59,4.4,1.87,8.71,2.85,13.06.13.58.31,1.15.61,2.27a8.79,8.79,0,0,1-2-.89c-6-5.4-9.48-12.33-12-19.82a13.67,13.67,0,0,1-.44-4.25v-1.16q0-3.91,0-7.82Q487.08,408.35,487.14,392.76ZM318.32,639.05a27.92,27.92,0,0,1,4.63-5.44,62.55,62.55,0,0,1,6.94-5.58c.75-.53,1.5-1,2.26-1.55l.05,0c.78-.51,1.57-1,2.36-1.51.52-.33,1-.65,1.55-1a.33.33,0,0,1,.1-.06c.44-.28.88-.55,1.33-.81l1.81-1.09A314.84,314.84,0,0,1,385,599.91c2.64-1,3.47-1.76,2.87-2.45-1.07-1.21-2.36-.43-3.56-.32-7,.65-14,1.25-21,2-7.46.8-14.91,1.75-22.37,2.61-1.21.14-2.44.15-3.65.22-.24-1.7,1-2.12,1.82-2.76a102.85,102.85,0,0,1,24-13.81A191,191,0,0,1,393.27,576a10.32,10.32,0,0,1,6.49.54,147.7,147.7,0,0,1,20.93,10.58c10.15,6.08,19.73,13,29.25,20,7.58,5.6,15.1,11.28,22.65,16.93.61.46,1.16,1,2,1.79a10.64,10.64,0,0,1-2.37,1.06c-15.51,2.05-30.06,7.28-44.38,13.29-8.55,3.58-17.25,6.74-26.4,8.47A121.77,121.77,0,0,1,379.11,651a11.64,11.64,0,0,1-1.85-.59c2.75-1.43,4.68-2.5,6.66-3.47a360.5,360.5,0,0,1,65.84-24.6,23.94,23.94,0,0,0,3.44-1.65c-1.07-.59-1.55-1.07-2-1.08q-3.82-.12-7.67,0a203.86,203.86,0,0,0-53.24,8.86c-11.94,3.61-23.51,8.2-35.13,12.66-5.95,2.29-12,4.28-18.1,6.22-.36.12-.72.22-1.09.32s-.6.16-.9.23l-.64.14s0,0,0,0a.07.07,0,0,1-.06,0l-.78.15q-.45.09-.9.15a19.65,19.65,0,0,1-6.49-.1,22.33,22.33,0,0,1-5.46-1.69C317.28,644.9,316.37,642.17,318.32,639.05ZM649.05,758.22c0,.21.08.42.11.62.07.41.14.82.18,1.23a7.16,7.16,0,0,1,0,.8c0,1.83,0,3.66,0,5.49,0,2.64,0,5.29,0,7.93h0c0,.39,0,.78.05,1.17,0,.2,0,.4,0,.6l.06.62c0,.34.06.68.09,1h0c0,.18,0,.36.05.55a94.69,94.69,0,0,0,10.18.22l3.57,0h5.87c1.17,1.93.84,3.63.57,5.54-.22.08-.43.19-.65.29l-.42.18a2.11,2.11,0,0,1-.43.12l-.21,0c-1.72,0-3.43,0-5.15,0q-6.78,0-13.55,0h-6.24a1,1,0,0,1-.25,0l-.24-.06-.45-.18a1.92,1.92,0,0,0-.27-.11c-.11-.2-.22-.37-.31-.52a2.3,2.3,0,0,1-.15-.33.34.34,0,0,1,0-.1q-.09-11.26-.14-22.53c0-.93.13-1.87.23-3.28h0l.56,0,1-.09h.2l.75-.06h.2l.44,0h.62c.41,0,.82,0,1.25.06l2.29.19h0C649,757.8,649,758,649.05,758.22ZM404.22,669.44c-.62.14-1.23.27-1.85.39l-.39.08c-.57.11-1.15.21-1.73.3s-1.11.15-1.66.2c-3.92.29-7.8-.53-11.65-1.17-.59-.1-1.17-.21-1.76-.34l-1.31-.3c-.87-.21-1.74-.44-2.6-.67l-.43-.11-.87-.24a4.54,4.54,0,0,1-1-.41l-.48-.25-.46-.23a1.67,1.67,0,0,1,.09-.51,1.19,1.19,0,0,1,.08-.16.22.22,0,0,1,.05-.08.31.31,0,0,1,.09-.11h0a.59.59,0,0,1,.27-.14,1.56,1.56,0,0,1,.57,0h.26c2.62,0,5.23,0,7.85,0,2,0,4,0,6,.06l1,0h1c.67,0,1.33,0,2,0s1.5,0,2.25-.08l1.76-.11c.83,0,1.65-.13,2.47-.21s1.4-.14,2.1-.23c.39,0,.78-.09,1.17-.15l.93-.13c1.23-.17,2.46-.37,3.69-.59l2.7-.51c.9-.18,1.79-.37,2.69-.57l.56-.11.3,0,.31-.05c.56-.08,1.12-.15,1.69-.21H420l1.19-.13.41,0h0l.08-.12.88-.26-.81.36-.15,0-.21.35a4,4,0,0,1-.41.65.83.83,0,0,1-.14.13.65.65,0,0,1-.15.1c-.82.37-1.65.73-2.48,1.07q-2.73,1.17-5.54,2.16c-.62.23-1.25.44-1.87.64l-.29.09-1.76.55c-.92.28-1.85.54-2.78.77Zm42.08,93.73-.84.15-.51.09c-.34.05-.68.1-1,.13l-.5,0-3.95,0c-3.08,0-6.15,0-9.22,0h-3.53c-.38,0-.76,0-1.13,0h-.18l-.39,0-.29,0a3.5,3.5,0,0,0-.45.07,1,1,0,0,0-.38.15.51.51,0,0,0-.16.09,1.8,1.8,0,0,0-.2.19,1.33,1.33,0,0,0-.14.19,1.51,1.51,0,0,0-.11.22.49.49,0,0,0-.06.17,2.6,2.6,0,0,0-.1.4,2.12,2.12,0,0,0,0,.44,2.25,2.25,0,0,0,.27,1.19,1.45,1.45,0,0,0,.37.41,1.32,1.32,0,0,0,.54.23c.22,0,.43.08.65.1l.59.06.63,0c.49,0,1,0,1.46,0,4.15,0,8.3,0,12.45,0,.51,0,1,0,1.43.06l.84.08c.2,0,.39.06.57.09l.53.11.63.19a5.69,5.69,0,0,1,.55.23,3.88,3.88,0,0,1,.48.3,2.71,2.71,0,0,1,.41.35l.05,0a2.6,2.6,0,0,1,.3.36,1.5,1.5,0,0,1,.15.23,1.23,1.23,0,0,1,.14.25,7.39,7.39,0,0,1,.67,2.68c.06.55.09,1.17.1,1.85,0,1,0,2,0,3s0,1.86-.09,2.79l-.06.55a2.84,2.84,0,0,1-.06.31c0,.1,0,.2-.07.3s-.07.25-.11.37a3.34,3.34,0,0,1-.17.44,4.24,4.24,0,0,1-.55.89l-.12.14a2.86,2.86,0,0,1-.4.38,3.55,3.55,0,0,1-.31.23,3,3,0,0,1-.49.29l-.4.17a5.65,5.65,0,0,1-1.57.36l-.31,0-.71,0a4.64,4.64,0,0,1-.53,0c-.53,0-1.06,0-1.59,0H420.21c-1.59,0-3.16-.08-4.65-.12-.86-2.74-.86-2.74-.21-6h0c.84-.09,1.68-.14,2.52-.17h0c1.44-.06,2.88,0,4.33,0s2.93,0,4.39,0c3.65,0,7.3,0,10.64-.07a4,4,0,0,0,.63-.75,2.24,2.24,0,0,0,.37-1,1.8,1.8,0,0,0,0-.61,1.86,1.86,0,0,0-.1-.39,4.3,4.3,0,0,0-.16-.41c-.06-.14-.13-.28-.21-.43h0l-.82-.09-.91-.11c-.32,0-.63-.07-.95-.09H435c-.25,0-.49,0-.74,0-1.75,0-3.51,0-5.26,0h-5.27c-.84,0-1.68,0-2.51,0l-.85,0c-.51,0-1-.1-1.4-.17a10.21,10.21,0,0,1-1.15-.28l-.5-.19a4.88,4.88,0,0,1-.84-.49,1.61,1.61,0,0,1-.28-.24,3.65,3.65,0,0,1-.6-.75l-.11-.19a6,6,0,0,1-.58-1.92,2.91,2.91,0,0,1,0-.31c-.05-.34-.08-.71-.1-1.11-.08-1.66-.11-3.34-.06-5,0-.41,0-.82.05-1.22s0-.63.06-1c0-.15,0-.3,0-.44v0a4.46,4.46,0,0,1,.18-.78c0-.13.08-.25.13-.37a3.82,3.82,0,0,1,.21-.46h0a4,4,0,0,1,.43-.64,3.45,3.45,0,0,1,.26-.28,2.26,2.26,0,0,1,.29-.25c.12-.09.25-.19.38-.27s.28-.16.43-.23a4.68,4.68,0,0,1,.45-.19l.45-.14.3-.07.36-.07.38,0a23.83,23.83,0,0,1,2.39-.05h0c7,0,14.05,0,21.07,0,.31,0,.62,0,.94,0l.48,0,1,.09.41,0,1.32.11v5.47Zm32-5.87c1.41,2.05,1,3.87.64,5.91a56.44,56.44,0,0,1-8.7.4c-2.17,0-4.34-.08-6.52,0-1.1,0-2.22.07-3.32.17-.55,0-1.11.1-1.67.17v3.78l2.55.11,3.18.15,1.92.08,2.62.11h0c.09.83.2,1.54.25,2.21a4.65,4.65,0,0,1,0,.74,26.82,26.82,0,0,1-.31,2.81h0l-.49.17-.38.1a7.78,7.78,0,0,1-.81.17l-.4.06c-2.66.34-5.4-.31-8.08.58v2.89l.14.08.16.08.46.24a.58.58,0,0,0,.17.06,1.07,1.07,0,0,0,.31.06c4.62.07,9.25.07,13.88.12,1.56,0,3.13.1,4.69.16h0a7,7,0,0,1,.63,3.55A13.79,13.79,0,0,1,479,784h0c-.5.26-.91.65-1.32.65-5.26,0-10.52,0-15.83,0H451.1c-.75-4.32-.83-22-.17-26.94h0c4.45-1,9.06-.33,13.61-.44l2.62,0C470.89,757.24,474.62,757.3,478.27,757.3Zm60.17,6.37-.69.08-.79.13a4.42,4.42,0,0,0-.5.1h0c-.07.61-.13,1.21-.17,1.82s-.07,1-.09,1.56l0,.8c-.14,3.75,0,7.49,0,11.24,0,1.06,0,2.13-.13,3.2,0,.54-.07,1.09-.12,1.64h0c-2.45.85-4.76.6-7.33.25,0-.29-.08-.57-.13-.85s-.14-.83-.19-1.23-.06-.54-.08-.8h0c0-.13,0-.27,0-.4,0-4.47,0-8.94,0-13.41,0-.15,0-.3,0-.46,0-.47-.07-.94-.12-1.43s-.11-1-.17-1.54l-.06-.55-1.19-.06-2.33-.11h0l-5.82-.28c0-.27-.07-.53-.11-.77s-.07-.48-.1-.71l-.06-.44a9.53,9.53,0,0,1-.09-1,6.32,6.32,0,0,1,0-.75c0-.35.07-.73.11-1.13,0-.21.06-.43.08-.67,3.19-1,6.37-.43,9.5-.54s6.07-.06,9.1,0,6.33-.25,9.58.3a12,12,0,0,1,.1,5.5l-.44.13-.44.11-.38.07a8.64,8.64,0,0,1-1.22.15l-.48,0c-.35,0-.7,0-1.05,0-1,0-2,0-3.11,0Zm-8.78-58.46,1-.2.34-.07.34-.06.33,0h0l.41,0h0l.23,0h4.33c3.07,0,6.13,0,9.19,0s6,0,9,0c2.11,0,3.51.39,4.41,1.3a4,4,0,0,1,1,1.79,11.24,11.24,0,0,1,.37,2.72c0,1.2,0,2.41,0,3.62,0,.55,0,1.09,0,1.63a11.59,11.59,0,0,0,0,1.18c0,.23,0,.45.07.68s.05.3.08.45a3.29,3.29,0,0,0,.09.43,2.37,2.37,0,0,0,.09.36,4.11,4.11,0,0,0,.17.57c0,.16.1.32.16.48,1.07,2.88.77,6,.24,8.95a2.83,2.83,0,0,1-.15.59,3.39,3.39,0,0,1-.36.77,3.62,3.62,0,0,1-.22.32l0,0-.27.3a2.37,2.37,0,0,1-.37.34c-.11.09-.23.17-.35.25a.82.82,0,0,1-.17.11,3,3,0,0,1-.4.21l-.22.1a.4.4,0,0,1-.18.07s0,0,0,0a2.23,2.23,0,0,1-.39.13.72.72,0,0,1-.25.07,1.1,1.1,0,0,1-.26.06,11.76,11.76,0,0,1-2.38.14h-12.3q-5.1,0-10.2,0l-.4,0a7.25,7.25,0,0,1-.8-.09l-.59-.1-1-.17-.37-.07a70.14,70.14,0,0,1-.09-16.38c.64-.05,1.28-.1,1.92-.13,1.26-.08,2.52-.11,3.77-.13,4-.05,8,.1,12,0,.53,0,1,0,1.58-.05l1.33-.06,1.33-.09h0c0-.19.06-.37.08-.56.12-.86.24-1.66.35-2.36h0c-.12-.11-.25-.21-.37-.3a2.69,2.69,0,0,0-.32-.19l-.22-.12a1.59,1.59,0,0,0-.27-.12,2.53,2.53,0,0,0-.36-.12l-.39-.09-.23,0-.23,0h-.13a7.79,7.79,0,0,0-1.08,0h-.71c-3,0-6,0-8.93,0h-.31l-4.16,0-1.75,0a5.94,5.94,0,0,1-3-.61,6.63,6.63,0,0,1-.35-1.34,7.49,7.49,0,0,1-.09-1.17,5.43,5.43,0,0,1,0-.57c0-.16,0-.33,0-.5s0-.3,0-.46c0-.36.1-.72.18-1.1A2,2,0,0,0,529.66,705.21Zm61.5,5.91h0c-.35,0-.71.07-1.06.09-.75,0-1.51,0-2.26,0l-1.29,0c-.6,0-1.21,0-1.81,0h-.12c-.37,0-.73,0-1.1,0l-1,0c-1.71,0-3.43,0-5.21,0-.78,0-1.58,0-2.39.13l-1.22.15c-.13,1.15-.24,2.17-.35,3.21l.23.1.41.18a4.27,4.27,0,0,0,.7.25l.17,0c2.85.11,5.69.16,8.67.24h0c0,.07,0,.13.07.2a1.8,1.8,0,0,0,.08.21c0,.1.07.2.09.3s.13.49.18.73.08.48.1.72a7.7,7.7,0,0,1,0,1V719c0,.32,0,.63-.07,1s-.14.94-.23,1.41h0a5.09,5.09,0,0,1-.88.36l-.2.06a2.37,2.37,0,0,1-.36.09c-.21,0-.42.09-.64.12l-.64.07c-2.51.18-5.14-.53-7.53.58v3.08c1.24.09,2.47.15,3.7.18,3.26.09,6.49,0,9.74,0l2.45,0,1.72,0,.72,0,1.53.07a11.68,11.68,0,0,1,.45,2.35,8.63,8.63,0,0,1-.4,3.42,4.65,4.65,0,0,1-1.39.49l-12,.07-12,0a18.45,18.45,0,0,1-2.54-.34c-.08-.37-.15-.75-.21-1.13s-.12-.75-.16-1.12c0-.14,0-.28,0-.42,0-.34-.06-.67-.08-1l0-.61c0-.17,0-.34,0-.5-.09-2.88.14-5.74.09-8.58,0-1.07,0-2.14-.06-3.22a100.93,100.93,0,0,1,.24-10.37h0c.2,0,.41-.08.61-.1s.57-.09.86-.12.75-.08,1.12-.1l.62,0c2-.08,4,0,6,0,3.2,0,6.4,0,9.59,0h9.18a8.9,8.9,0,0,1,.29,5.85A11.93,11.93,0,0,1,591.16,711.12Zm6.5,6.43c0-.17,0-.33.07-.49s0-.32.07-.48h0l.4-.11a2,2,0,0,1,.4-.1l.62-.11.62-.07.61,0c1,0,2,0,3,.05h1.35c2.4-.08,4.79,0,7.19,0h7a3.88,3.88,0,0,0,.89-1.2,2.1,2.1,0,0,0,.19-.6,2.6,2.6,0,0,0,0-.39,5.36,5.36,0,0,0-.39-2.18h0l-.18-.07-.38-.16a2.9,2.9,0,0,0-.41-.16,2.15,2.15,0,0,0-.65-.13c-4.95-.07-9.9-.06-14.85-.11-1.73,0-3.46-.11-5.2-.17a7.31,7.31,0,0,1-.44-1.17,6.85,6.85,0,0,1-.16-.76c0-.25-.06-.5-.07-.75a13.2,13.2,0,0,1,.34-3.26c.59-.05,1.16-.13,1.72-.19l.9-.08h.07c.23,0,.44,0,.67,0h21.08c.44,0,.9,0,1.34,0l.57,0a5.3,5.3,0,0,1,.9.17,3.31,3.31,0,0,1,.42.12,2.85,2.85,0,0,1,.31.12l.12,0,0,0a1.15,1.15,0,0,1,.25.12c.13.07.26.14.38.22s.26.18.38.28a3,3,0,0,1,.41.39l.13.15a3.18,3.18,0,0,1,.41.6,3.84,3.84,0,0,1,.18.35c0,.06.05.12.07.19a3,3,0,0,1,.11.32,5.38,5.38,0,0,1,.21,1.18c.07,1,.08,2.08.08,3.12,0,1.51,0,3,0,4.53a3.46,3.46,0,0,1,0,.56v.16a3.87,3.87,0,0,1,0,.49c0,.16-.05.31-.08.46s-.06.3-.1.44a3.78,3.78,0,0,1-.21.56,4,4,0,0,1-.22.47,1.65,1.65,0,0,1-.15.25,2.2,2.2,0,0,1-.17.25,3.8,3.8,0,0,1-.41.49,5.64,5.64,0,0,1-.63.55,7,7,0,0,1-1.63.86c-.54.2-1.06.47-1.66.76l-.63.3h0c.14.2.29.4.45.59a17.66,17.66,0,0,0,1.77,1.89l.63.58,1,.9c.86.74,1.72,1.47,2.53,2.25l.48.48a9.69,9.69,0,0,1,.75.83l.15.17c.15.18.29.36.43.55a3.87,3.87,0,0,1-3.36.89,8.43,8.43,0,0,0-.86-.05l-2.52,0c-.6,0-1.09,0-1.51,0h-.37l-.32,0-.2,0-.38-.07-.19,0a.49.49,0,0,1-.17-.06,1.72,1.72,0,0,1-.29-.11h0l-.3-.16a2.29,2.29,0,0,1-.29-.18l-.23-.17c-.21-.16-.44-.35-.7-.58a1.86,1.86,0,0,1-.22-.19l-1.26-1.11-.35-.31c-.27-.24-.56-.5-.88-.77-1.33-1.15-2.7-2.25-3.91-3.52h0a7.7,7.7,0,0,0-1-.87,5.94,5.94,0,0,0-1-.65s0,0,0,0l-.53-.23a5.15,5.15,0,0,0-.56-.16,5.22,5.22,0,0,0-.57-.11,4.66,4.66,0,0,0-1.18,0,5.81,5.81,0,0,0-.58.09h-.08l-.55.14-.06,0c-.21.06-.43.14-.65.22-.15,2.68-.31,5.48-.47,8.36-.47.14-.93.25-1.39.34l-.1,0-1.08.15a3,3,0,0,1-.43,0l-.38,0a15.68,15.68,0,0,1-3.76-.35c-.12-.5-.22-1.05-.32-1.66,0-.3-.08-.61-.12-.94s0-.49-.08-.74c0-.51-.08-1-.12-1.57,0-.27,0-.54,0-.82s0-.37,0-.56c0-1.49,0-3.05.05-4.57v0a0,0,0,0,1,0-.05C597.41,719.93,597.51,718.7,597.66,717.55Zm.26,52.59c0-2.88,0-5.76.06-8.63,0-1.25.21-2.49.32-3.78l.76-.15.57-.1.61-.09.39,0a3.89,3.89,0,0,1,.47,0h.18a7.53,7.53,0,0,1,1.06,0l.72,0c.3,0,.59.05.89.1s.51.08.76.13.5.12.75.19c.45,2.22.66,9.27.61,15.71,0,.33,0,.66,0,1q0,1,0,2c0,.61,0,1.2,0,1.77l0,.9c0,1.12-.1,2.15-.17,3v0c-.06.89-.14,1.64-.23,2.2h0c-.12,0-.25.09-.38.12a8,8,0,0,1-.81.2l-.54.1a17,17,0,0,1-4.1,0c-.68-.07-1.35-.15-2-.25a1.22,1.22,0,0,1-.26-.06,2.42,2.42,0,0,1-.52-.24l-.25-.17a9.51,9.51,0,0,1-1.28-1.19l-.28-.3c-3.35-3.43-6.63-6.93-10-10.38-.08-.08-.16-.17-.25-.25l-.25-.25c-.39-.37-.81-.75-1.3-1.19l-.51-.46-.41-.39h0c0,.09,0,.18-.08.27a2.68,2.68,0,0,0-.07.27,15.66,15.66,0,0,0-.27,1.57c-.22,1.93,0,3.67-.07,5.38-.08,2.22-.07,4.43-.1,6.52l-.59.28c-.37.17-.69.31-1,.42l-.43.16a5,5,0,0,1-.61.16,1.77,1.77,0,0,1-.32,0,17.12,17.12,0,0,1-4.65-.44c-.09-.22-.22-.45-.33-.69l-.09-.25a1,1,0,0,1,0-.17.86.86,0,0,1,0-.16q-.07-11.74-.06-23.49a2.68,2.68,0,0,1,.07-.56c0-.1.05-.19.07-.29s0,0,0-.05a2.25,2.25,0,0,0,.08-.24c.07-.23.15-.47.21-.72l.91-.21.2,0a3.55,3.55,0,0,1,.84-.12c1,0,2.08,0,3.13,0h3.22c.63.59,1.26,1.18,1.86,1.79,3.51,3.45,6.74,7.16,10.14,10.64l.45.46c.15.16.29.31.44.45l1.35,1.33C598,771.77,597.91,770.9,597.92,770.14Zm-28.07-12.45v5.57l-1.35.16-1.69.2-1.41.17-.3,0-.66.07h0a85,85,0,0,0-.07,14.18l1.44.24,1.37.2c.76.1,1.54.17,2.39.25a6.37,6.37,0,0,1,.25.69c.06.2.11.41.15.61a1.57,1.57,0,0,1,0,.23,4.6,4.6,0,0,1,.06.52,11.6,11.6,0,0,1-.14,2.68c0,.22-.06.45-.1.68h0a5.52,5.52,0,0,1-.53.18,11.24,11.24,0,0,1-2.9.5c-2,.09-4-.17-5.95-.1s-3.88,0-5.8,0l-1.88,0-1.71,0c-.77-3-.77-3-.13-6l4.51-.45c1-3.43,1-9.89.15-14.41l-2.27-.26c-.77-.1-1.57-.2-2.4-.29a2,2,0,0,1-.14-.25,2.72,2.72,0,0,1-.11-.25,4.24,4.24,0,0,1-.18-.5,2.77,2.77,0,0,1-.14-.62,4.13,4.13,0,0,1-.07-.49,8.28,8.28,0,0,1,0-1.22,5.23,5.23,0,0,1,.07-.68l0-.22c0-.38.12-.76.18-1.14C554.17,757.16,563.48,757,569.85,757.69ZM629,763.57l-1.48,0c-2.41.07-4.82-.08-7.33,0-.8,0-1.61.1-2.42.21h0c-.11,1.2-.2,2.23-.3,3.38,3.37,1.5,6.84,0,10.22,1.12h0a5.33,5.33,0,0,1,.42,1.3,3.06,3.06,0,0,1,.06.45,1.52,1.52,0,0,1,0,.21,1.83,1.83,0,0,1,0,.33,7.25,7.25,0,0,1,0,1,5.88,5.88,0,0,1-.07.71c0,.47-.14,1-.24,1.44h0a7,7,0,0,1-.93.35,7.73,7.73,0,0,1-.8.19l-.27,0a14.36,14.36,0,0,1-2.54.11c-1,0-2.09-.09-3.11,0a8.27,8.27,0,0,0-1,.12,4.54,4.54,0,0,0-.53.12,5.38,5.38,0,0,0-.65.2,2.25,2.25,0,0,0-.43,2.4c.07.15.14.29.23.45a1.58,1.58,0,0,0,.15.24l.18.23c6.24.67,12.77-.13,19.36.47a10.22,10.22,0,0,1,.39,3.54,12.7,12.7,0,0,1-.14,1.34s0,0,0,0c0,.22-.07.45-.11.69h0c-4.62,1-9.24.39-13.8.45a126.25,126.25,0,0,1-14-.2,5.87,5.87,0,0,1-.64-1.77q0-6.87,0-13.74c0-3.24,0-6.49,0-9.73a2,2,0,0,1,.07-.47.19.19,0,0,1,0-.1,1,1,0,0,1,0-.14l.14-.4c0-.15.1-.3.15-.48l1.26-.21.79-.1c.3,0,.6-.07.91-.09l1-.07c3.07-.16,6.17.07,9.25.07h.51l1.74,0,1.81,0c.59,0,1.19,0,1.78,0q1.74,0,3.48,0l1.31,0,.85,0c.42,0,.84,0,1.25.07.58,0,1.15.09,1.72.15a5.32,5.32,0,0,1,.32.69,6.89,6.89,0,0,1,.21.7,5.5,5.5,0,0,1,.11.69c0,.23,0,.46,0,.7a15.91,15.91,0,0,1-.2,2.22c0,.25-.07.51-.11.77h0A61.76,61.76,0,0,1,629,763.57Zm2.83-93.05-.54.33L631,671a3.38,3.38,0,0,1-.52.22c-1,.33-2,.63-3,.9-.67.18-1.35.34-2,.49-.93.2-1.86.38-2.79.53l-1.3.2h-.1l-1.41.17-1.41.13c-.7.06-1.41.1-2.12.13-1,0-2,.05-3.08,0h-.91c-.55,0-1.11,0-1.66-.08-.71,0-1.41-.09-2.11-.16-1.41-.12-2.8-.28-4.19-.47l-1.87-.28c-.75-.11-1.51-.25-2.26-.39-.54-.09-1.08-.2-1.62-.32l-.31-.06c-.86-.18-1.71-.37-2.56-.57s-1.65-.39-2.46-.61a1.05,1.05,0,0,1-.24-.06l-1.69-.46c-.43-.11-.85-.23-1.27-.36-1.69-.48-3.36-1-5-1.57l-1.93-.67-1.59-.57-1.38-.5-2-.76c-1.67-.65-3.34-1.32-5-2-1.1-.46-2.19-.93-3.28-1.41-.91-.41-1.82-.81-2.72-1.23l-.49-.22c-1.51-.69-3-1.4-4.49-2.13q-5.87-2.86-11.58-6c-1.27-.7-2.54-1.41-3.8-2.13q-5-2.9-10-6l-2.53-1.57c-.84-.52-1.68-1.05-2.51-1.59l-5-3.23c-2.89-1.87-5.76-3.76-8.64-5.65L515.5,631c-.29-.19-.57-.4-.87-.64h0l-.64-.53-.55-.46-.31-.25-.34-.27a6.73,6.73,0,0,1,3.86,1.48q2.54,1.5,5.08,3l2.94,1.68q3,1.71,6.05,3.36c.82.45,1.64.9,2.47,1.34q2.05,1.11,4.11,2.18l3.18,1.65,3,1.54a1.34,1.34,0,0,0,.24.12c1,.53,2.09,1,3.14,1.56l3.23,1.57c1,.48,2,1,3,1.42q6.45,3,13,5.82l2.8,1.17,2.81,1.15,2.82,1.12,1.28.5c.43.17.85.34,1.28.49l2,.76,1,.35,2.1.75c2.6.92,5.21,1.78,7.85,2.57.77.24,1.55.47,2.33.69a.06.06,0,0,0,.05,0l.17,0a4.12,4.12,0,0,0,.47.13c.74.22,1.49.43,2.24.63,1.17.32,2.35.63,3.53.92s2.37.57,3.56.84l1.29.29,2.58.54h0c.85.17,1.71.32,2.57.47h0l1.94.32,1.94.28a72,72,0,0,0,18.67.2h0a1,1,0,0,1,.43,0l.31.06.34.07.22,0ZM514.06,707.4c.16-.18.33-.35.5-.52s.34-.35.52-.52.39-.38.59-.55a3.45,3.45,0,0,1,.36-.32c.23-.21.47-.4.72-.59h9.86c-1.23,1.52-1.85,2.38-2.57,3.16-3.25,3.5-6.5,7-9.83,10.44q-.24.25-.45.51a4.6,4.6,0,0,0-.38.52,4.86,4.86,0,0,0-.33.54,1.89,1.89,0,0,0-.09.21.09.09,0,0,0,0,.07l-.12.28a.29.29,0,0,0,0,.13,1.73,1.73,0,0,0-.11.32l0,.11a2.33,2.33,0,0,0-.08.36.15.15,0,0,0,0,.09,2.14,2.14,0,0,0-.06.35,7.77,7.77,0,0,0-.08,1.21,63.81,63.81,0,0,1,0,6.49,14.45,14.45,0,0,1-.36,2.12h0l-.4.18a2,2,0,0,1-.29.1l-.3.1-.6.14a13.81,13.81,0,0,1-3.46,0c-.66,0-1.33-.1-2-.1a3.45,3.45,0,0,1-.14-.34l-.12-.33-.09-.33a5.86,5.86,0,0,1-.18-.87c0-.11,0-.21,0-.32-.14-1.27,0-2.49,0-3.68,0-.82,0-1.64,0-2.48,0-1.12,0-2.29,0-3.55l-3.37-3.6-2.54-2.71-4.22-4.53-3.36-3.6a2.34,2.34,0,0,1,.13-.35,1,1,0,0,1,.11-.21l.06-.1a.39.39,0,0,1,.08-.1l.08-.09a1,1,0,0,1,.37-.25,1,1,0,0,1,.21-.07,8.18,8.18,0,0,1,1.4,0c6.82-.18,6.82-.16,11.5,4.74.27.29.55.57.83.85.84.85,1.72,1.7,2.68,2.66a8.9,8.9,0,0,0,.79-.58c.28-.21.56-.44.82-.67.41-.37.79-.75,1.17-1.13l.19-.2c.19-.19.37-.39.56-.6C512.61,709,513.31,708.21,514.06,707.4Zm-22.68,50c.43.39.85.79,1.27,1.21.1.09.21.19.31.3.44.43.88.86,1.31,1.3,3.73,3.76,7.19,7.81,11,11.47l.31.3.2,0a1.3,1.3,0,0,0,.69-.4.72.72,0,0,0,.11-.15s.05-.09.08-.14a3,3,0,0,0,.14-1.13c0-2.88,0-5.76.06-8.63,0-.23,0-.47,0-.7s0-.33,0-.49c0-.54.1-1.08.16-1.63,0-.31.07-.63.1-.95h0c.33-.07.66-.14,1-.19s.65-.1,1-.14.5-.06.74-.07l.36,0a7.31,7.31,0,0,1,.81,0l.81,0a7,7,0,0,1,.79.08,11,11,0,0,1,1.69.35h0l0,.2a.11.11,0,0,0,0,.05,2.52,2.52,0,0,1,.06.41c0,.17.05.35.07.55s0,.19,0,.3a6.26,6.26,0,0,1,.06.65l0,.36c0,.24,0,.49,0,.76s0,.52.05.8c0,.57,0,1.17.08,1.8,0,.47,0,.95.05,1.45,0,1,0,2,.06,3.11,0,2.38,0,4.88,0,7.22,0,.64,0,1.28,0,1.89s0,1.2-.06,1.77c0,1.43-.13,2.7-.22,3.73,0,.18,0,.35,0,.51s0,.32-.06.47,0,.21,0,.3,0,.19,0,.28a17,17,0,0,1-7.86.22l-.36-.09a2.7,2.7,0,0,1-.5-.27h0l-.33-.24a7.93,7.93,0,0,1-.8-.75l-.59-.62c-2.59-2.66-5.14-5.35-7.72-8l-2.57-2.68h0l-.24-.23c-.16-.17-.33-.32-.51-.49l-.89-.78-.34-.3-.35-.32h0a18.11,18.11,0,0,0-.46,2.68,33.91,33.91,0,0,0-.1,3.76c0,1.27.07,2.52.05,3.76,0,.17,0,.33,0,.49s0,.32,0,.48c0,.32,0,.64-.07,1a14.76,14.76,0,0,1-.45,2.53h0l-1.45.23a11.06,11.06,0,0,1-1.4.14c-1.42,0-2.82-.11-4.2-.17a6,6,0,0,1-.59-1.56q0-12,0-24a4.7,4.7,0,0,1,.49-1.38h0l.4-.1.4-.08.78-.12A49.81,49.81,0,0,1,491.38,757.41Zm-11.31-43.07-1.34-2.72H463.94a5.91,5.91,0,0,0-.45,1.13c0,.11-.06.22-.08.33a3.89,3.89,0,0,0-.09.47c0,.23-.06.47-.07.7a18.37,18.37,0,0,0,0,2.1,0,0,0,0,0,0,0l0,.69a10.26,10.26,0,0,1,0,1.24c-.11,2.22,0,4.45,0,6.89a16,16,0,0,0,2.85.58c4.14.06,8.27,0,12.63,0h0c.06-.24.13-.47.2-.68s.09-.25.14-.37a2.68,2.68,0,0,1,.16-.34,4.79,4.79,0,0,1,.25-.45,2.7,2.7,0,0,1,.18-.25,2,2,0,0,1,.19-.22,1.71,1.71,0,0,1,.32-.29,2.62,2.62,0,0,1,.34-.24h0l.39-.18a3.17,3.17,0,0,1,.44-.12,4,4,0,0,1,1.34,0l.65.08.46,0c.51.05,1,.07,1.56.1l.57,0,1.2.06c0,.3.05.6.07.88s0,.29,0,.42.05.54.07.8a13,13,0,0,1,0,1.39c0,.21,0,.43,0,.63a1.39,1.39,0,0,1,0,.3,3.47,3.47,0,0,1-.06.45,5.41,5.41,0,0,1-.12.58.66.66,0,0,1,0,.15c0,.13-.07.25-.11.37s-.1.3-.16.44a4.53,4.53,0,0,1-.68,1.15.87.87,0,0,1-.13.15,1.88,1.88,0,0,1-.24.25,4.3,4.3,0,0,1-1.72,1,5.44,5.44,0,0,1-.54.15,7.58,7.58,0,0,1-1.21.14q-2.61.1-5.22.15h-.33c-1.8,0-3.6,0-5.39,0s-3.6,0-5.4,0-3.78-.08-5.67-.15c-3.54-.13-4.94-2.06-5-5.73-.08-5.27-.09-10.53,0-15.8a8.66,8.66,0,0,1,.37-2.6,5.38,5.38,0,0,1,.43-1,3.51,3.51,0,0,1,.27-.4,2.09,2.09,0,0,1,.24-.28.74.74,0,0,1,.12-.13,6.19,6.19,0,0,1,4.47-1.47c6.54-.14,13.09-.12,19.64,0a11.12,11.12,0,0,1,2.37.25h0a6.11,6.11,0,0,1,1.25.4,4.22,4.22,0,0,1,1,.6h0a3,3,0,0,1,.41.39,5.2,5.2,0,0,1,.37.43,4.92,4.92,0,0,1,.56,1,6,6,0,0,1,.36,1.28c.05.23.08.48.11.73a14.75,14.75,0,0,1,.09,1.69c0,.78-.15,1.55-.26,2.75Zm-167-51.28c1.88-.34,2.85,1,4.12,1.36s2.71.89,4.09,1.25c1.53.4,3.09.75,4.65,1a40.81,40.81,0,0,0,4.27.53c1.42.1,2.86,0,4.29.11.67,0,1.35.07,2.17.12l1.22.09,1.87.12c-.77.35-1.28.61-1.67.81a4,4,0,0,1-1,.39h0c-4.85.89-9.73,1.66-14.64.57l-.11,0-.1,0a17.67,17.67,0,0,1-3.9-1.29h0A11.31,11.31,0,0,1,313.06,663.06Zm366.85-47.52c.52-.48.87-.85,1.14-1.12l.16-.16.15-.14a1.54,1.54,0,0,1,.34-.27.7.7,0,0,1,.17-.09,32.65,32.65,0,0,1,3.6-1.26l5.73-1.68.42-.12,11.27-3.28.55-.14.6-.11,1-.18.39-.07h0c0,.16-.07.32-.11.48s-.08.31-.13.45a2.3,2.3,0,0,1-.14.42,6.31,6.31,0,0,1-.25.58c-.09.18-.19.35-.29.52s-.17.25-.26.36a1.24,1.24,0,0,1-.18.22,5,5,0,0,1-2.62,1.49c-1.7.42-3.43.73-5.15,1l-2.52.47-2.54.48-5.29,1-1.44.26-3.58.67Zm69.53-73a27,27,0,0,1-3,3.48c-.19.2-.39.39-.59.58a39.7,39.7,0,0,1-13.09,7.82,92.18,92.18,0,0,1-14.78,4,191.37,191.37,0,0,0-19.61,4.53,68,68,0,0,0-21.56,11.2,11.05,11.05,0,0,0-1.66,1.69c-.16.21-.1.6-.18,1.26a8.07,8.07,0,0,0,2.13.05c8.95-2.3,18-2.28,27.15-1.57a14.52,14.52,0,0,1,2.35.44c.28.07.52.34,1,.69a7.92,7.92,0,0,1-1.16,1.83,33,33,0,0,1-9.88,5.77c-4.17,1.63-8.36,3.17-12.52,4.83C671.15,594.22,660.2,602,652,613.32a91.65,91.65,0,0,0-9.69,17.6c-.34.79-.32.8.4,2.78,5.08-2.73,10.26-5.17,16.08-5.68,3.77-.32,7.53-1.17,11.66-.48-.46.58-.66,1.12-1,1.22-5.12,1.42-9.74,4-14.44,6.35-3.14,1.58-6.27,3.2-9.49,4.59a48.41,48.41,0,0,1-22,3.74,31.56,31.56,0,0,1-10.18-2.55c-7-2.81-13.41-6.74-19.71-10.83-10.47-6.77-20.78-13.78-31.33-20.43-20.61-13-42.26-23.88-65.53-31.35a241.74,241.74,0,0,0-31.56-8q-5.43-1-10.89-1.75a34.06,34.06,0,0,0-4.23,0c.51.89.67,1.58,1.08,1.79,1.42.73,2.93,1.27,4.4,1.9,18.78,8,36.36,18,52.16,31,2.34,1.92,4.59,4,6.87,6,.09.07,0,.29,0,.47-.6.9-1.36.4-2,.16-11.1-3.86-21.16-9.72-30.94-16.12-10.17-6.65-20.42-13.15-31.67-17.9a148.76,148.76,0,0,0-35.39-10.07c-5-.78-10.1-1.48-15.16-2.22-.46-1,.2-1.37.94-1.78a57.1,57.1,0,0,1,14.77-5.52c14.46-3.51,29.13-3.71,43.85-2.34,26.44,2.48,51.77,9.54,76.53,18.85q19.08,7.17,37.4,16.09c1.27.62,2.59,1.11,3.78,1.61a1.39,1.39,0,0,0,.24-2.24c-8.73-10.61-18.72-19.66-31.47-25.27a22.37,22.37,0,0,1-2.27-1.39c.83-.37,1.21-.68,1.58-.67a183.68,183.68,0,0,1,33.81,3.45,109.86,109.86,0,0,1,27.66,9.15c10.63,5.32,19.76,12.43,26,22.7,1.9,3.12,3.3,6.54,4.9,9.84a20.32,20.32,0,0,0,.94,2.19c.19.3.8.43,1.23.47.21,0,.58-.34.66-.6a8.82,8.82,0,0,0,.48-2.3c.1-5.43.39-10.88.15-16.29a41.25,41.25,0,0,0-11-26.94,2.74,2.74,0,0,0-.32-.36c-3.67-2.73-3.65-6.51-2.72-10.39a23.5,23.5,0,0,1,10.14-14.62c10.33-6.8,21.37-8.1,32.89-3.43A29.47,29.47,0,0,1,683.93,546a25.61,25.61,0,0,0,2,2.58c.06.08.29,0,.76,0,1.25-3.06.17-6.16-.32-9.17a28.93,28.93,0,0,0-3.45-9.41,27.21,27.21,0,0,0-5.85-7.53c-2.41-2.08-5-4-7.56-6a11.43,11.43,0,0,1,0-2.74c2.08-8.51,5.62-16.27,11.89-22.6a29.8,29.8,0,0,1,19-9.1,36.45,36.45,0,0,1,20.06,3.42A29.29,29.29,0,0,1,734,499.9a50.06,50.06,0,0,1,4.36,23.81,59.18,59.18,0,0,1-3,16.93,5.57,5.57,0,0,0-.15,1.32c.86,1.11,1.69.73,2.52.12a35.17,35.17,0,0,0,6.1-5.69c.21-.22.4-.45.59-.69q.65-.78,1.23-1.59c.28-.35.54-.72.79-1.08a50.89,50.89,0,0,0,3-4.92c.28-.51.55-1,.81-1.55.56-1.11,1.14-2.22,1.69-3.27,1.39,0,1.32,1,1.44,1.63A22.33,22.33,0,0,1,749.44,542.49Zm18,9.35a13.58,13.58,0,0,1-.76,2.52c-.06.12-.11.25-.17.38s-.26.56-.4.83l-.33.59c-.11.2-.23.39-.35.58s-.2.31-.3.46a18.9,18.9,0,0,1-1.37,1.79,32.92,32.92,0,0,1-8.65,6.82c0-.17,0-.33.07-.47a1.18,1.18,0,0,1,0-.2c0-.06,0-.12,0-.18a1.18,1.18,0,0,1,0-.2,2.09,2.09,0,0,1,.12-.4,1.67,1.67,0,0,1,.08-.2v0a2,2,0,0,1,.11-.2,14.68,14.68,0,0,1,1.64-2,41.51,41.51,0,0,0,3.16-4.17c.45-.66.87-1.32,1.29-2s.8-1.38,1.16-2.08c.8-1.55,1.48-3.16,2.14-4.77.58-1.44,1.06-2.93,1.84-5.12.07.23.14.47.2.7a18.26,18.26,0,0,1,.44,2,12.13,12.13,0,0,1,.16,1.3c0,.21,0,.42,0,.63A14.23,14.23,0,0,1,767.46,551.84Z" transform="translate(-303.19 -201.06)"/><path class="cls-1" d="M358.44,321.5v9.86c-1.22,1.46-2.75,1-4.11,1-10.36,0-20.72,0-31.08,0-4.47,0-8.93,0-13.39,0-1.4,0-2.8-.18-4.26-.29-.93-1.86-.55-3.63-.61-5.33s0-3.16,0-4.94a15.39,15.39,0,0,1,2.89-.6q23.91,0,47.82,0C356.45,321.23,357.22,321.37,358.44,321.5Z" transform="translate(-303.19 -201.06)"/><path class="cls-1" d="M388.57,332.08V321.82a9.94,9.94,0,0,1,2.22-.57q24.38,0,48.75,0a11.69,11.69,0,0,1,1.61.26c1.29,3.33.36,6.74.54,10.32a19.37,19.37,0,0,1-3.07.56q-23.43,0-46.84,0C390.85,332.4,389.93,332.22,388.57,332.08Z" transform="translate(-303.19 -201.06)"/><path class="cls-1" d="M722.48,332.17a33.88,33.88,0,0,1-.08-10.63c4.37-.69,8.65-.25,12.9-.32,4.46-.08,8.93,0,13.39,0,4.3,0,8.6,0,12.91,0s8.56-.14,13.07.15c1.07,3.58.42,7,.43,10.54a20.81,20.81,0,0,1-3.07.49q-23.43,0-46.86,0C724.4,332.4,723.63,332.27,722.48,332.17Z" transform="translate(-303.19 -201.06)"/><path class="cls-1" d="M538,518.6a20.86,20.86,0,0,1,1.7-2.35,41.4,41.4,0,0,1,12.36-8.1c14.47-6.21,29.39-8.39,44.93-4.92a43.67,43.67,0,0,1,9.45,3.33c.4.19.68.62,1.27,1.18-3.54,1.71-7.64,1.08-10.68,3.46-.17.14-.11.58-.21,1.23l2,.64c3.19,1,6.54,1.66,9.52,3.09,7.75,3.71,7.16,9.87,1.52,14.15a63.55,63.55,0,0,1-18.1,9.62,95.35,95.35,0,0,1-24.86,4.81c-4.93.32-9.88.58-14.82.75a62,62,0,0,1-14.74-1.55,24.13,24.13,0,0,1-2.78-.72c-4.4-1.41-5.45-4.1-2.91-8a22.63,22.63,0,0,1,4.19-4.56c4.77-4.14,10.45-6.74,16.3-8.91,3.43-1.26,7-2,10.57-3a5.31,5.31,0,0,0,1.37-.38,1.7,1.7,0,0,0,.79-1.08,1.37,1.37,0,0,0-.76-1,8.87,8.87,0,0,0-2.36-.29A79.82,79.82,0,0,0,541.33,518C540.44,518.26,539.52,518.35,538,518.6Z" transform="translate(-303.19 -201.06)"/><path class="cls-1" d="M385.22,525.78a21.68,21.68,0,0,1,.9-2.57A40.33,40.33,0,0,1,401,507.33a59.48,59.48,0,0,1,40.88-8.53,30.46,30.46,0,0,1,11.21,4c.34.2.48.75.87,1.42-17.79,3.06-30.16,12.76-36.9,29.64a27.17,27.17,0,0,1-3.51,1.13c-14.07,2.64-24.84,10.44-33.58,21.41-1.49,1.87-2.86,3.85-4.22,5.82a4.88,4.88,0,0,1-3,2.26c-8.68,1.86-16.57,5.73-24.4,9.73a4.93,4.93,0,0,1-1.62.13,10.41,10.41,0,0,1,.77-5.08,48.32,48.32,0,0,1,16.54-23A67.23,67.23,0,0,1,387.18,535,77.68,77.68,0,0,1,406,531.74a11,11,0,0,0,2.22-.52c0-1.87-1.27-2.29-2.44-2.69a47.12,47.12,0,0,0-17.41-2.76C387.49,525.81,386.58,525.78,385.22,525.78Z" transform="translate(-303.19 -201.06)"/><path class="cls-1" d="M518.08,520.82c-2.32-.57-4-1-5.64-1.41a45.53,45.53,0,0,0-13.29-1.53,10.27,10.27,0,0,0-2.53.9,19.78,19.78,0,0,0,2.23,1.7c3.26,1.68,6.68,3.09,9.8,5a26.24,26.24,0,0,1,6.18,5.22c3.09,3.61,2.34,7.27-1.92,9.46a28,28,0,0,1-7.67,2.57c-9,1.65-18.14,1.49-27.24.64a82.68,82.68,0,0,1-18.32-3.47,72.6,72.6,0,0,1-9.26-3.85c-2.5-1.23-4.8-3.2-4.83-6.12,0-3.22,2.65-4.92,5.27-6.25a47.1,47.1,0,0,1,11.8-3.89c2-.43,4.09-.5,6.28-1.68-.58-.57-.93-1.22-1.39-1.32a45.47,45.47,0,0,0-6.11-1c-2.21-.16-4.44,0-6.66,0-.22-1.08.59-1.4,1.26-1.76a47.5,47.5,0,0,1,18.71-5.57c13-1.08,25.49,1,37.1,7.21a40.78,40.78,0,0,1,4.75,3.21A10.87,10.87,0,0,1,518.08,520.82Z" transform="translate(-303.19 -201.06)"/><path class="cls-1" d="M633.07,496.18l-7.65-2.59A90.06,90.06,0,0,0,601,489.27a154,154,0,0,0-24.85.83,17.24,17.24,0,0,1-2.38.11c-.27,0-.54-.28-1-.55a18.4,18.4,0,0,1,.94-3c3.23-6.58,6.54-13.12,9.81-19.69,2.41-4.85,4.91-9.66,7.18-14.57a73.42,73.42,0,0,0,4.94-16.95c.24-1.23.52-2.44.77-3.58,1.21-.38,1.11.53,1.33,1a9.18,9.18,0,0,1,.61,1.81,129.78,129.78,0,0,0,8.36,22.86c6.31,13.56,14.34,25.94,24.92,36.6A23.69,23.69,0,0,1,633.07,496.18Z" transform="translate(-303.19 -201.06)"/><path class="cls-1" d="M629.37,452c15.35,1.45,39.68,11.29,48.94,21-1.52,1.62-3.71,2.32-5.35,3.73s-3.46,2.84-5.05,4.4a53.73,53.73,0,0,0-4.09,4.68c-1.39,1.72-2.67,3.53-4,5.26C649.23,485.41,633.88,464.62,629.37,452Z" transform="translate(-303.19 -201.06)"/><path class="cls-1" d="M529.76,715.59c7.39-.62,14.55.11,22-.44l.44-2.93c-1.42-1.28-2.91-1-4.32-1-4.46,0-8.93,0-13.39,0-1.58,0-3.2.24-4.71-.59a9.43,9.43,0,0,1-.11-5.38,17.45,17.45,0,0,1,2.7-.43c7.5,0,15-.06,22.49,0,4.21,0,5.63,1.51,5.77,5.81.06,1.75,0,3.51,0,5.26a10.27,10.27,0,0,0,.68,4.14c1.07,2.88.76,6,.24,8.95a4.26,4.26,0,0,1-3.65,3.37,11.86,11.86,0,0,1-2.39.14c-7.49,0-15,0-22.49,0a20.88,20.88,0,0,1-3.13-.44A70.26,70.26,0,0,1,529.76,715.59Zm7.83,10.2c2.27.06,4,.11,5.73.13s3.2.09,4.78,0,3.49.51,4.93-.64a2.75,2.75,0,0,0-.76-3.19c-4.47,0-9.35-.21-14.5.15C537.71,723.44,537.66,724.33,537.59,725.79Z" transform="translate(-303.19 -201.06)"/><path class="cls-1" d="M512.31,476.51a21.68,21.68,0,0,1,2.35.91c8.12,4.37,16.43,4.51,25,1.32a66.08,66.08,0,0,0,12.72-6.58c1.7-1.11,3.43-2.18,5.42-3.44.06.9.26,1.4.11,1.77a75.4,75.4,0,0,1-13.81,22.79,84.54,84.54,0,0,1-7,6.43,10.2,10.2,0,0,1-2,1.29c-5.23,2.8-8.37,2-12.48-2a21,21,0,0,1-3.19-4.18,69.84,69.84,0,0,1-7-16.19A8.58,8.58,0,0,1,512.31,476.51Z" transform="translate(-303.19 -201.06)"/><path class="cls-1" d="M491.31,769.74c-1.3,5.12.24,10-1.06,14.68a25.12,25.12,0,0,1-2.86.36c-1.41,0-2.83-.11-4.2-.17a5.68,5.68,0,0,1-.58-1.56q0-12,0-24a4.75,4.75,0,0,1,.5-1.38c2.69-.74,5.38-.33,8.28-.3,5,4.58,9.31,9.92,14.17,14.59,1.26-.23,1.21-1.11,1.22-1.87,0-2.88,0-5.75.05-8.63,0-1.24.21-2.49.33-3.77a14.11,14.11,0,0,1,7.16,0c.77,3.84.83,21.93.07,26.61a16.91,16.91,0,0,1-7.85.22c-.95-.14-1.84-1.18-2.6-2-3.46-3.55-6.85-7.16-10.28-10.73C493,771.21,492.3,770.64,491.31,769.74Z" transform="translate(-303.19 -201.06)"/><path class="cls-1" d="M574.23,784.33a4,4,0,0,1-.47-1.27q-.07-11.73-.06-23.48a8.6,8.6,0,0,1,.44-1.86,12.44,12.44,0,0,1,2-.38c2.07,0,4.14,0,6.34,0,5.06,4.66,9.4,10,14.25,14.67,1.26-.23,1.22-1.1,1.23-1.86,0-2.88,0-5.75.05-8.63,0-1.25.21-2.49.33-3.78a14.11,14.11,0,0,1,7.16,0c.77,3.81.84,21.87.08,26.61-2.52.86-5.23.6-7.85.22-1-.13-1.84-1.18-2.6-2-3.35-3.43-6.63-6.92-10-10.38-.74-.77-1.56-1.46-2.73-2.54-.82,2.83-.39,5.19-.48,7.5s-.07,4.44-.1,6.53C578.9,785.06,578.74,785.07,574.23,784.33Z" transform="translate(-303.19 -201.06)"/><path class="cls-1" d="M446.74,757.63v5.47a26.44,26.44,0,0,1-3.3.47c-5.27,0-10.54,0-15.81,0a16.79,16.79,0,0,0-3.33.18c-.84.17-1.18,1-1.19,1.85s.32,1.66,1.18,1.83a17.6,17.6,0,0,0,3.33.24c4.15,0,8.3,0,12.45,0,5.48.09,6.75,1.39,6.84,6.84,0,1.91.09,3.83-.05,5.74-.2,2.78-1.78,4.26-4.62,4.47-1.27.09-2.55,0-3.83,0-6.07,0-12.13,0-18.2,0-1.58,0-3.16-.08-4.66-.12-.86-2.74-.86-2.74-.21-6,3.69-.38,7.5-.14,11.29-.19s7.3,0,10.64-.07a2.57,2.57,0,0,0,.51-3.58c-1.06-.11-2.29-.33-3.53-.35-3.51,0-7,0-10.54,0-1.12,0-2.24,0-3.35,0-4.05-.31-5.4-1.62-5.6-5.65a59.3,59.3,0,0,1,0-7.18c.19-2.58,1.75-4,4.31-4.28a23.78,23.78,0,0,1,2.39,0c7,0,14.05,0,21.07,0C443.82,757.32,445.06,757.5,446.74,757.63Z" transform="translate(-303.19 -201.06)"/><path class="cls-1" d="M605.59,723.54c-.15,2.68-.3,5.49-.46,8.37a14.08,14.08,0,0,1-7.15.2c-.88-3.69-1-10.67-.18-15.53,2.22-.74,4.61-.31,7-.38s4.79,0,7.18,0h7c1.44-1.38,1.32-2.73.74-4.38a5.7,5.7,0,0,0-1.62-.52c-4.95-.07-9.9-.06-14.85-.11-1.73,0-3.46-.1-5.21-.16-1-2.08-.72-3.9-.32-5.95,1.19-.11,2.27-.3,3.35-.3,7,0,14.06,0,21.08,0a17.58,17.58,0,0,1,1.92,0c2.52.27,4.17,1.77,4.33,4.27s0,5.1.08,7.66a5.23,5.23,0,0,1-3.66,5.53c-.72.27-1.41.65-2.3,1.07,2.38,3.27,5.9,5.11,8.22,8.24-1.37,1.34-2.88.86-4.21.85-6.88,0-5,.66-10.19-3.82-1.33-1.14-2.71-2.25-3.92-3.51A5.64,5.64,0,0,0,605.59,723.54Z" transform="translate(-303.19 -201.06)"/><path class="cls-1" d="M573.5,722.64v3.08c6.67.5,13.2-.05,19.85.35a9.34,9.34,0,0,1,.06,5.77,4.8,4.8,0,0,1-1.4.49q-12,.07-24,.09a20.72,20.72,0,0,1-2.55-.35c-1-4.5-.39-9-.46-13.35a129.59,129.59,0,0,1,.19-13.6c3.2-.64,6.21-.3,9.19-.36,3.2,0,6.39,0,9.59,0h9.18a9,9,0,0,1,.29,5.86c-3.32,1.11-6.68.41-10,.57s-6.36-.2-9.83.31c-.12,1.15-.23,2.18-.35,3.22a5.61,5.61,0,0,0,1.52.54c2.84.12,5.69.17,8.67.24a9.92,9.92,0,0,1,.25,5.87C580.5,723,576.77,721.12,573.5,722.64Z" transform="translate(-303.19 -201.06)"/><path class="cls-1" d="M487.14,714.35h-7.08l-1.33-2.73H463.94c-1.18,2.25-.53,4.52-.64,6.69s0,4.45,0,6.89a15.94,15.94,0,0,0,2.86.58c4.14.06,8.28,0,12.63,0,.55-2.12,1.61-3.5,4-3.15,1.38.19,2.79.2,4.44.3.09,1.34.25,2.42.22,3.49-.09,3.47-1.61,5.62-5.07,5.75-7.33.29-14.68.29-22,0-3.54-.13-4.94-2.06-5-5.73q-.12-7.9,0-15.8c.07-4,1.77-5.79,5.91-5.87,6.54-.14,13.09-.12,19.63,0,4.79.07,6.56,2,6.55,6.8C487.4,712.37,487.26,713.15,487.14,714.35Z" transform="translate(-303.19 -201.06)"/><path class="cls-1" d="M627.88,773.84c-3.2,1.49-6.71-.06-9.83,1.12a2.39,2.39,0,0,0,.12,3.32c6.25.67,12.78-.13,19.36.46a11.48,11.48,0,0,1,.14,5.58c-4.63,1-9.24.39-13.8.45a128.67,128.67,0,0,1-14-.19,6,6,0,0,1-.64-1.78q-.06-11.73,0-23.47a7.23,7.23,0,0,1,.44-1.59c4.52-.9,9.13-.36,13.7-.4a118.4,118.4,0,0,1,13.95.21c1,1.86.66,3.67.35,5.78-3.5.48-6.83.17-10.14.26s-6.36-.2-9.76.26c-.1,1.2-.19,2.23-.29,3.38,3.37,1.5,6.83,0,10.22,1.12C628.5,770.08,628.26,771.92,627.88,773.84Z" transform="translate(-303.19 -201.06)"/><path class="cls-1" d="M567.27,296.81c.67-.42.92-.71,1.17-.71,2.72,0,5.44-.06,8.15.15,9.21.71,17.91,3.11,25.71,8.26a31.09,31.09,0,0,1,7.8,7c2.51,3.32,2.31,6.5-.53,9.5-2,2.14-5.69,3.81-9.56,1.23a15.45,15.45,0,0,1-2.21-1.83A164.3,164.3,0,0,0,568.6,298,13.14,13.14,0,0,1,567.27,296.81Z" transform="translate(-303.19 -201.06)"/><path class="cls-1" d="M451.1,784.72c-.75-4.3-.83-22-.18-27,4.46-1,9.06-.33,13.62-.44s9.22,0,13.73,0c1.41,2.06,1,3.87.64,5.91-6.78,1-13.48-.18-20.21.71v3.77l10.26.46a14,14,0,0,1,0,5.77c-3.31,1.28-6.79,0-10.17,1.08v2.9a3.66,3.66,0,0,0,1.24.51c4.63.07,9.26.07,13.88.12,1.57,0,3.13.11,4.7.17A8.08,8.08,0,0,1,479,784c-.5.26-.91.65-1.33.65C468.86,784.73,460.09,784.72,451.1,784.72Z" transform="translate(-303.19 -201.06)"/><path class="cls-1" d="M632.75,670a14.84,14.84,0,0,1-2.26,1.27,52.51,52.51,0,0,1-19.84,2.49c-11.28-.68-22-3.74-32.48-7.81a253.13,253.13,0,0,1-41.34-21.13c-7.2-4.45-14.24-9.17-21.33-13.78-.79-.51-1.48-1.16-2.73-2.16a6.74,6.74,0,0,1,3.87,1.48A407,407,0,0,0,574.57,659a191.16,191.16,0,0,0,27.85,8.7c9.57,2.16,19.2,3.36,29,2.1A6.22,6.22,0,0,1,632.75,670Z" transform="translate(-303.19 -201.06)"/><path class="cls-1" d="M469,497.58c1.5-11.68,14.4-25.39,25.87-27.69a9,9,0,0,1,.89,2.49,78.94,78.94,0,0,1,0,8.14c-.2,3.67-.59,7.33-1,11a20.6,20.6,0,0,1-.83,3c-4.16.28-8.28.38-12.35.87S473.51,496.77,469,497.58Z" transform="translate(-303.19 -201.06)"/><path class="cls-1" d="M526.6,704.9c-1.22,1.52-1.84,2.38-2.56,3.16-3.25,3.5-6.5,7-9.83,10.44a6.15,6.15,0,0,0-1.83,4.7c0,2.84.39,5.72-.34,8.62-2.33,1.14-4.65.45-7.06.46-.91-2.09-.54-4-.6-5.87s0-3.82,0-6l-13.49-14.45c.47-1.6,1.6-1.14,2.45-1.16,6.82-.19,6.82-.16,11.49,4.73,1.09,1.14,2.23,2.23,3.52,3.52,3.32-2.23,5.21-5.7,8.41-8.13Z" transform="translate(-303.19 -201.06)"/><path class="cls-1" d="M569.85,757.69v5.58l-5.42.63a86.16,86.16,0,0,0-.07,14.19c1,.16,1.92.31,2.82.43s1.53.17,2.38.26a9.24,9.24,0,0,1,.26,5.41c-3.05,1.2-6.26.48-9.38.59s-6.33,0-9.39-.07c-.77-3-.77-3-.14-6l4.52-.45c1-3.44,1-9.9.14-14.42l-4.67-.54c-1-1.78-.63-3.6-.35-5.38C554.15,757.16,563.47,757,569.85,757.69Z" transform="translate(-303.19 -201.06)"/><path class="cls-1" d="M536.45,764c-.77,6.77.11,13.46-.55,20.27-2.46.84-4.76.59-7.34.24a28.25,28.25,0,0,1-.41-3.28c0-4.47,0-8.94,0-13.41,0-1.24-.22-2.48-.36-4l-9.36-.44c-.14-1.15-.33-2-.36-3a21.58,21.58,0,0,1,.21-2.55c3.18-1,6.38-.43,9.5-.53s6.07-.06,9.11,0,6.32-.25,9.57.3a11.91,11.91,0,0,1,.11,5.5C543.35,764.17,540.1,763.11,536.45,764Z" transform="translate(-303.19 -201.06)"/><path class="cls-1" d="M641.67,757.58c1.55-.11,2.64-.26,3.74-.25s2.2.15,3.54.25a29,29,0,0,1,.44,3.29c.05,4.48,0,9,0,13.43,0,1.24.18,2.48.29,4a94.87,94.87,0,0,0,10.19.22c3.18.05,6.35,0,9.44.05,1.17,1.93.84,3.63.57,5.54a5.42,5.42,0,0,1-1.71.61q-12.48.06-24.94,0a4.19,4.19,0,0,1-1.21-.38c-.21-.41-.47-.68-.47-1q-.11-11.26-.14-22.52C641.43,759.93,641.57,759,641.67,757.58Z" transform="translate(-303.19 -201.06)"/><path class="cls-1" d="M621.82,403.51c2.55,0,4.94,0,7.32,0a3.22,3.22,0,0,1,3.07,1.9,29.56,29.56,0,0,0,8,9.77,4.16,4.16,0,0,1,.84,1.14,12,12,0,0,1,.55,1.26c-3.29.84-18,1.05-24.78.36-1.65-1.7-1-3.8-1-5.66a45.87,45.87,0,0,0,3.57-4.08A42.35,42.35,0,0,0,621.82,403.51Z" transform="translate(-303.19 -201.06)"/><path class="cls-1" d="M607.74,297.31c-4-1.92-7.53-3.93-11.31-5.4a84.77,84.77,0,0,0-11.88-3.62c-4-.91-8.13-1.3-12.33-1.93a22.69,22.69,0,0,1-.16-9.9C582.14,277,603.55,289.07,607.74,297.31Z" transform="translate(-303.19 -201.06)"/><path class="cls-1" d="M421.67,662.36c-.32.47-.53,1.18-1,1.37a82.71,82.71,0,0,1-20.45,6.49c-4.48.73-8.91-.25-13.31-1-2.35-.39-4.67-1-7-1.65a12.16,12.16,0,0,1-2-.9c.08-1.29.92-1,1.43-1,4.63,0,9.25-.09,13.88,0A97.57,97.57,0,0,0,417,663.11c1.55-.34,3.15-.42,4.73-.63Z" transform="translate(-303.19 -201.06)"/><path class="cls-1" d="M766.87,543.81c1.9,6.23.5,11-3.09,15.18a33.21,33.21,0,0,1-8.66,6.83c.28-1.82.31-1.8,2.15-3.87a41.6,41.6,0,0,0,3.17-4.17,40.05,40.05,0,0,0,2.45-4.08c.79-1.54,1.48-3.15,2.13-4.77C765.61,547.49,766.09,546,766.87,543.81Z" transform="translate(-303.19 -201.06)"/><path class="cls-1" d="M705.46,606.92c-.51,2.64-1.82,4-4,4.52-1.7.42-3.43.73-5.15,1-5.13,1-10.26,1.91-16.44,3.06,1.18-1.1,1.51-1.59,2-1.79a34.8,34.8,0,0,1,3.6-1.25q8.7-2.58,17.43-5.09C703.61,607.21,704.37,607.13,705.46,606.92Z" transform="translate(-303.19 -201.06)"/><path class="cls-1" d="M421.76,662.48l.81-.35c-.3.08-.59.17-.89.24Z" transform="translate(-303.19 -201.06)"/><path class="cls-1" d="M537.59,725.79c.07-1.46.12-2.35.18-3.56,5.15-.36,10-.12,14.5-.15a2.75,2.75,0,0,1,.76,3.19c-1.44,1.15-3.25.53-4.93.64s-3.19,0-4.78,0S539.86,725.85,537.59,725.79Z" transform="translate(-303.19 -201.06)"/><path class="cls-1" d="M474.63,625.85a10.64,10.64,0,0,1-2.37,1.06c-15.51,2.05-30.06,7.28-44.38,13.29-8.55,3.58-17.25,6.74-26.4,8.47A121.77,121.77,0,0,1,379.11,651a11.64,11.64,0,0,1-1.85-.59c2.75-1.43,4.68-2.5,6.66-3.47a360.5,360.5,0,0,1,65.84-24.6,23.94,23.94,0,0,0,3.44-1.65c-1.07-.59-1.55-1.07-2-1.08q-3.82-.12-7.67,0a203.86,203.86,0,0,0-53.24,8.86c-11.94,3.61-23.51,8.2-35.13,12.66-5.95,2.29-12,4.28-18.1,6.22-.36.12-.72.22-1.09.32s-.6.16-.9.23l-.64.14s0,0,0,0a.07.07,0,0,1-.06,0l-.78.15q-.45.09-.9.15a19.65,19.65,0,0,1-6.49-.1,22.33,22.33,0,0,1-5.46-1.69c-3.39-1.6-4.3-4.33-2.35-7.45a27.92,27.92,0,0,1,4.63-5.44,62.55,62.55,0,0,1,6.94-5.58c.75-.53,1.5-1,2.26-1.55l.05,0c.78-.51,1.57-1,2.36-1.51.51-.33,1-.65,1.55-1a.33.33,0,0,1,.1-.06c.44-.28.88-.55,1.33-.81l1.81-1.09A314.84,314.84,0,0,1,385,599.91c2.64-1,3.47-1.76,2.87-2.45-1.07-1.21-2.36-.43-3.56-.32-7,.65-14,1.25-21,2-7.46.8-14.91,1.75-22.37,2.61-1.21.14-2.44.15-3.65.22-.24-1.7,1-2.12,1.82-2.76a102.85,102.85,0,0,1,24-13.81A191,191,0,0,1,393.27,576a10.32,10.32,0,0,1,6.49.54,147.7,147.7,0,0,1,20.93,10.58c10.15,6.08,19.73,13,29.25,20,7.58,5.6,15.1,11.28,22.65,16.93C473.2,624.52,473.75,625.07,474.63,625.85Z" transform="translate(-303.19 -201.06)"/><path class="cls-1" d="M344.92,672.7a16.88,16.88,0,0,1-2.69,1.2c-4.86.89-9.75,1.66-14.67.57-3.78-.83-7.18-2.36-9.31-6.38,1.88-.34,2.85,1,4.11,1.36s2.72.89,4.1,1.25c1.53.4,3.09.75,4.65,1a40.81,40.81,0,0,0,4.27.53c1.42.1,2.86,0,4.29.11S342.39,672.54,344.92,672.7Z" transform="translate(-303.19 -201.06)"/><path class="cls-1" d="M749.44,542.49a27,27,0,0,1-3,3.48c-.19.2-.39.39-.59.58a39.7,39.7,0,0,1-13.09,7.82,92.18,92.18,0,0,1-14.78,4,191.37,191.37,0,0,0-19.61,4.53,68,68,0,0,0-21.56,11.2,11.05,11.05,0,0,0-1.66,1.69c-.16.21-.1.6-.18,1.26a8.07,8.07,0,0,0,2.13.05c8.95-2.3,18-2.28,27.15-1.57a14.52,14.52,0,0,1,2.35.44c.28.07.52.34,1,.69a7.92,7.92,0,0,1-1.16,1.83,33,33,0,0,1-9.88,5.77c-4.17,1.63-8.36,3.17-12.52,4.83C671.15,594.22,660.2,602,652,613.32a91.65,91.65,0,0,0-9.69,17.6c-.34.79-.32.8.4,2.78,5.08-2.73,10.26-5.17,16.08-5.68,3.77-.32,7.53-1.17,11.66-.48-.46.58-.66,1.12-1,1.22-5.12,1.42-9.74,4-14.44,6.35-3.14,1.58-6.27,3.2-9.49,4.59a48.41,48.41,0,0,1-22,3.74,31.56,31.56,0,0,1-10.18-2.55c-7-2.81-13.41-6.74-19.71-10.83-10.47-6.77-20.78-13.78-31.33-20.43-20.61-13-42.26-23.88-65.53-31.35a241.74,241.74,0,0,0-31.56-8q-5.43-1-10.89-1.75a34.06,34.06,0,0,0-4.23,0c.51.89.67,1.58,1.08,1.79,1.42.73,2.93,1.27,4.4,1.9,18.78,8,36.36,18,52.16,31,2.34,1.92,4.59,4,6.87,6,.09.07,0,.29,0,.47-.6.9-1.36.4-2,.16-11.1-3.86-21.16-9.72-30.94-16.12-10.17-6.65-20.42-13.15-31.67-17.9a148.76,148.76,0,0,0-35.39-10.07c-5-.78-10.1-1.48-15.16-2.22-.46-1,.2-1.37.94-1.78a57.1,57.1,0,0,1,14.77-5.52c14.46-3.51,29.13-3.71,43.85-2.34,26.44,2.48,51.77,9.54,76.53,18.85q19.08,7.17,37.4,16.09c1.27.62,2.59,1.11,3.78,1.61a1.39,1.39,0,0,0,.24-2.24c-8.73-10.61-18.72-19.66-31.47-25.27a22.37,22.37,0,0,1-2.27-1.39c.83-.37,1.21-.68,1.58-.67a183.68,183.68,0,0,1,33.81,3.45,109.86,109.86,0,0,1,27.66,9.15c10.63,5.32,19.76,12.43,26,22.7,1.9,3.12,3.3,6.54,4.9,9.84a20.32,20.32,0,0,0,.94,2.19c.19.3.8.43,1.23.47.21,0,.58-.34.66-.6a8.82,8.82,0,0,0,.48-2.3c.1-5.43.39-10.88.15-16.29a41.25,41.25,0,0,0-11-26.94,2.74,2.74,0,0,0-.32-.36c-3.67-2.73-3.65-6.51-2.72-10.39a23.5,23.5,0,0,1,10.14-14.62c10.33-6.8,21.37-8.1,32.89-3.43A29.47,29.47,0,0,1,683.93,546a25.61,25.61,0,0,0,2,2.58c.06.08.29,0,.76,0,1.25-3.06.17-6.16-.32-9.17a28.93,28.93,0,0,0-3.45-9.41,27.21,27.21,0,0,0-5.85-7.53c-2.41-2.08-5-4-7.56-6a11.43,11.43,0,0,1,0-2.74c2.08-8.51,5.62-16.27,11.89-22.6a29.8,29.8,0,0,1,19-9.1,36.45,36.45,0,0,1,20.06,3.42A29.29,29.29,0,0,1,734,499.9a50.06,50.06,0,0,1,4.36,23.81,59.18,59.18,0,0,1-3,16.93,5.57,5.57,0,0,0-.15,1.32c.86,1.11,1.69.73,2.52.12a35.17,35.17,0,0,0,6.1-5.69c.21-.22.4-.46.59-.69q.65-.78,1.23-1.59c.28-.36.54-.72.79-1.08a50.89,50.89,0,0,0,3-4.92c.28-.51.55-1,.81-1.55.56-1.11,1.14-2.22,1.69-3.27,1.39,0,1.32,1,1.44,1.63A22.33,22.33,0,0,1,749.44,542.49Z" transform="translate(-303.19 -201.06)"/><path class="cls-1" d="M610.39,356.27c-1,.51-1.36-.45-1.89-.92-2.87-2.52-5.63-5.2-8.62-7.58-2.18-1.75-3.45-1.42-5.2.89a70.9,70.9,0,0,0-9.27,17.25,154.43,154.43,0,0,0-8.82,36.69c-.79,6.17-1.44,12.37-1.85,18.58a12.82,12.82,0,0,1-.48,2.77c0,.18-.1.36-.16.54A17.55,17.55,0,0,1,572,428.7c-.35.52-.69,1-1,1.55s-.71,1-1.08,1.52c-.64.88-1.3,1.74-2,2.57-.36.46-.72.9-1.1,1.34s-.68.8-1,1.2c-.79.9-1.61,1.79-2.45,2.66l-1.21,1.23-.27.26c-.49.49-1,1-1.51,1.44-.24.23-.48.46-.73.68-.65.59-1.3,1.17-2,1.74l-.06.05c-.74.63-1.48,1.25-2.24,1.86l-.11.09c-.77.61-1.54,1.22-2.33,1.81a105.46,105.46,0,0,1-20.65,12,4.62,4.62,0,0,1-1.24.09,5.47,5.47,0,0,1,0-1.67c.23-.72.46-1.45.68-2.17s.41-1.36.61-2l.3-1.07q.27-.94.51-1.89c.17-.61.32-1.23.47-1.84.34-1.36.66-2.72.95-4.08q.24-1.1.45-2.19c.45-2.23.83-4.47,1.16-6.71q.41-2.69.71-5.39l.12-1.15c.15-1.36.27-2.73.37-4.1.07-.86.13-1.71.18-2.57a192.38,192.38,0,0,0-.18-25.4c-.24-3.33-.43-6.67-.65-10.1a13.87,13.87,0,0,1,2.43-1.62A66.71,66.71,0,0,0,560.79,373a8,8,0,0,1,1.42-.8c2.42,4.35,1.45,9.37,2.76,13.66,1.7.39,2.08-.58,2.27-1.49a72.53,72.53,0,0,0,1.27-7.55c.88-9.75.8-19.46-1.31-29.08-.94-4.31-1.62-4.57-5.26-2a143.6,143.6,0,0,1-33.25,17.84c-2.7,1-5.46,1.76-8.18,2.67-1.19.39-2.35.87-3.63,1.35-.21,1.39-.52,2.63-.58,3.88-.43,8.94-.79,17.89,1.47,26.68.64,2.51.41,4.59-1.74,6.45-2.87,2.49-5.5,5.26-8.43,8.11-.35-.52-.87-1-.94-1.48-.81-5.69-1.74-11.37-2.26-17.08a207.1,207.1,0,0,1,.11-36.85c.12-1.38,0-2.79,0-4.64-.83.44-1.59.58-1.76,1-.75,1.76-1.37,3.57-2,5.38a28,28,0,0,1-2.55,6.34c-3.82-1.78-6.54-4.65-9.11-7.68-.92-1.08-.59-2.38-.32-3.66a112.51,112.51,0,0,1,6.55-21,122.13,122.13,0,0,1,12.3-21.62,2.94,2.94,0,0,1,2-1.24c-.34,1.35-.64,2.71-1,4A75.39,75.39,0,0,0,506,329.71a3.25,3.25,0,0,0,.21,1.38,1,1,0,0,0,.69.53,1,1,0,0,0,.8-.35c.65-1.45,1.25-2.93,1.82-4.41a101.29,101.29,0,0,1,20.75-33.07c1.18-1.26,2.47-2.42,3.57-3.48C564.45,299.32,598.2,328.63,610.39,356.27Z" transform="translate(-303.19 -201.06)"/><path class="cls-1" d="M501.52,457.89a8.79,8.79,0,0,1-2-.89c-6-5.4-9.48-12.33-12-19.82a13.67,13.67,0,0,1-.44-4.25v-1.16q0-3.91,0-7.82,0-15.6.05-31.19a58.43,58.43,0,0,1,1.28-12.64c2,2.9,3.71,5,5.08,7.31a8.16,8.16,0,0,1,.89,3.65c.28,4.61.44,9.23.62,13.85.25,6.35.6,12.69,1.09,19,.11,1.37.22,2.75.35,4.12s.23,2.47.36,3.7c.17,1.8.37,3.6.58,5.4.06.55.13,1.11.2,1.67a.45.45,0,0,0,0,.11c.14,1.2.3,2.41.46,3.61.59,4.4,1.87,8.71,2.85,13.06C501,456.2,501.22,456.77,501.52,457.89Z" transform="translate(-303.19 -201.06)"/><path class="cls-1" d="M714,744.51c-55.9,96-153.94,121.72-173.4,126.41C520.76,866,422.87,839.63,367.14,743.43a260.8,260.8,0,0,1-27.69-69c-.18-.68-.34-1.36-.49-2-.32-1.3-.61-2.59-.89-3.87-.07-.31-.14-.62-.2-.93-1.49-6.8-2.63-13.34-3.51-19.57,0,0,0,0,0,0l.64-.14c.3-.07.6-.14.9-.23s.73-.2,1.09-.32c6.08-1.94,12.15-3.93,18.1-6.22,11.62-4.46,23.19-9,35.13-12.66a203.86,203.86,0,0,1,53.24-8.86q3.84-.1,7.67,0c.49,0,1,.49,2,1.08a23.94,23.94,0,0,1-3.44,1.65,360.5,360.5,0,0,0-65.84,24.6c-2,1-3.91,2-6.66,3.47a11.64,11.64,0,0,0,1.85.59,121.77,121.77,0,0,0,22.37-2.28c9.15-1.73,17.85-4.89,26.4-8.47,14.32-6,28.87-11.24,44.38-13.29a10.64,10.64,0,0,0,2.37-1.06c-.88-.78-1.43-1.33-2-1.79-7.55-5.65-15.07-11.33-22.65-16.93-9.52-7-19.1-14-29.25-20a147.7,147.7,0,0,0-20.93-10.58,10.32,10.32,0,0,0-6.49-.54,191,191,0,0,0-30.13,9.42,102.85,102.85,0,0,0-24,13.81c-.83.64-2.06,1.06-1.82,2.76,1.21-.07,2.44-.08,3.65-.22,7.46-.86,14.91-1.81,22.37-2.61,7-.75,14-1.35,21-2,1.2-.11,2.49-.89,3.56.32.6.69-.23,1.41-2.87,2.45A314.84,314.84,0,0,0,339.35,622l-1.81,1.09c-.45.26-.89.53-1.33.81a.33.33,0,0,0-.1.06c-.52.31-1,.63-1.55,1-.79.49-1.58,1-2.36,1.51l-.05,0c-.68-10.64-.64-19.72-.41-26.71v-168H487.1v1.16a13.67,13.67,0,0,0,.44,4.25c2.5,7.49,6,14.42,12,19.82a8.79,8.79,0,0,0,2,.89c-.3-1.12-.48-1.69-.61-2.27-1-4.35-2.26-8.66-2.85-13.06-.16-1.2-.32-2.41-.46-3.61a.45.45,0,0,1,0-.11c-.07-.56-.13-1.12-.2-1.67-.21-1.8-.41-3.6-.58-5.4h40.07c0,.26-.06.52-.1.78l0,.26v0s0,.05,0,.07c0,.35-.08.69-.13,1s-.07.6-.11.9c0,0,0,.09,0,.13s0,0,0,.07c-.09.71-.19,1.41-.3,2.11-.33,2.24-.71,4.48-1.16,6.71q-.21,1.1-.45,2.19c-.29,1.36-.61,2.72-.95,4.08-.15.61-.31,1.23-.47,1.84s-.33,1.26-.51,1.89l-.3,1.07c-.2.68-.4,1.36-.61,2s-.45,1.45-.68,2.17a5.47,5.47,0,0,0,0,1.67,4.62,4.62,0,0,0,1.24-.09,105.46,105.46,0,0,0,20.65-12c.79-.59,1.56-1.2,2.33-1.81l.11-.09c.76-.61,1.5-1.23,2.24-1.86l.06-.05c.66-.57,1.31-1.15,2-1.74.25-.22.49-.45.73-.68.51-.47,1-1,1.51-1.44l.27-.26,1.21-1.23c.84-.87,1.66-1.76,2.45-2.66.35-.4.69-.79,1-1.2s.74-.88,1.1-1.34c.68-.83,1.34-1.69,2-2.57H749.44v96.34a50.89,50.89,0,0,1-3,4.92c-.25.36-.51.73-.79,1.08q-.58.81-1.23,1.59c-.19.24-.38.47-.59.69a35.17,35.17,0,0,1-6.1,5.69c-.83.61-1.66,1-2.52-.12a5.57,5.57,0,0,1,.15-1.32,59.18,59.18,0,0,0,3-16.93A50.06,50.06,0,0,0,734,499.9a29.29,29.29,0,0,0-13.52-14.37,36.45,36.45,0,0,0-20.06-3.42,29.8,29.8,0,0,0-19,9.1c-6.27,6.33-9.81,14.09-11.89,22.6a11.43,11.43,0,0,0,0,2.74c2.58,2,5.15,3.93,7.56,6a27.21,27.21,0,0,1,5.85,7.53,28.93,28.93,0,0,1,3.45,9.41c.49,3,1.57,6.11.32,9.17-.47,0-.7,0-.76,0a25.61,25.61,0,0,1-2-2.58,29.47,29.47,0,0,0-14.28-12.32c-11.52-4.67-22.56-3.37-32.89,3.43a23.5,23.5,0,0,0-10.14,14.62c-.93,3.88-1,7.66,2.72,10.39a2.74,2.74,0,0,1,.32.36,41.25,41.25,0,0,1,11,26.94c.24,5.41,0,10.86-.15,16.29a8.82,8.82,0,0,1-.48,2.3c-.08.26-.45.61-.66.6-.43,0-1-.17-1.23-.47a20.32,20.32,0,0,1-.94-2.19c-1.6-3.3-3-6.72-4.9-9.84-6.27-10.27-15.4-17.38-26-22.7a109.86,109.86,0,0,0-27.66-9.15,183.68,183.68,0,0,0-33.81-3.45c-.37,0-.75.3-1.58.67a22.37,22.37,0,0,0,2.27,1.39c12.75,5.61,22.74,14.66,31.47,25.27a1.39,1.39,0,0,1-.24,2.24c-1.19-.5-2.51-1-3.78-1.61q-18.33-8.88-37.4-16.09c-24.76-9.31-50.09-16.37-76.53-18.85-14.72-1.37-29.39-1.17-43.85,2.34a57.1,57.1,0,0,0-14.77,5.52c-.74.41-1.4.8-.94,1.78,5.06.74,10.12,1.44,15.16,2.22A148.76,148.76,0,0,1,450,575.8c11.25,4.75,21.5,11.25,31.67,17.9,9.78,6.4,19.84,12.26,30.94,16.12.69.24,1.45.74,2-.16,0-.18,0-.4,0-.47-2.28-2-4.53-4.05-6.87-6-15.8-13-33.38-23-52.16-31-1.47-.63-3-1.17-4.4-1.9-.41-.21-.57-.9-1.08-1.79a34.06,34.06,0,0,1,4.23,0q5.46.78,10.89,1.75a241.74,241.74,0,0,1,31.56,8c23.27,7.47,44.92,18.36,65.53,31.35,10.55,6.65,20.86,13.66,31.33,20.43,6.3,4.09,12.7,8,19.71,10.83a31.56,31.56,0,0,0,10.18,2.55,48.41,48.41,0,0,0,22-3.74c3.22-1.39,6.35-3,9.49-4.59,4.7-2.36,9.32-4.93,14.44-6.35.33-.1.53-.64,1-1.22-4.13-.69-7.89.16-11.66.48-5.82.51-11,3-16.08,5.68-.72-2-.74-2-.4-2.78a91.65,91.65,0,0,1,9.69-17.6c8.21-11.35,19.16-19.1,32.06-24.24,4.16-1.66,8.35-3.2,12.52-4.83a33,33,0,0,0,9.88-5.77,7.92,7.92,0,0,0,1.16-1.83c-.5-.35-.74-.62-1-.69a14.52,14.52,0,0,0-2.35-.44c-9.12-.71-18.2-.73-27.15,1.57A8.07,8.07,0,0,1,675,577c.08-.66,0-1,.18-1.26a11.05,11.05,0,0,1,1.66-1.69,68,68,0,0,1,21.56-11.2A191.37,191.37,0,0,1,718,558.36a92.18,92.18,0,0,0,14.78-4,39.7,39.7,0,0,0,13.09-7.82c.2-.19.4-.38.59-.58a27,27,0,0,0,3-3.48v57.28C750.45,626.37,748.89,684.6,714,744.51Z" transform="translate(-303.19 -201.06)"/></svg>