<svg id="Layer_1" data-name="Layer 1" xmlns="http://www.w3.org/2000/svg" viewBox="0 0 481.46 675.89"><defs><style>.cls-1{fill:#fff;}</style></defs><path d="M477.49,418.26c.64-5,0-9.47.2-14.12a18.2,18.2,0,0,0-2.8-.65c-1.6-.1-3.2,0-4.8,0H312.26c-1.89,0-3.78-.05-5.94-.08a22.34,22.34,0,0,1-.43-2.95q0-30,0-59.94a30.25,30.25,0,0,1,.39-3.41,13.82,13.82,0,0,1,2.46-.47q24.22,0,48.45,0a10.05,10.05,0,0,1,1.4.25c1.3,1.35.84,3,.85,4.57,0,9.91,0,19.82,0,29.73,0,1.73.13,3.45.2,5.39,5,1,9.8.35,14.53.46s9.56,0,14,0c1.45-1.54,1.06-3,1.06-4.43,0-10.23,0-20.46,0-30.69,0-1.57.12-3.14.2-4.94a17.37,17.37,0,0,1,2.45-.38q24,0,48,0a14,14,0,0,1,1.81.22c1.31,1.24.91,2.76.91,4.14,0,10.07,0,20.14,0,30.21,0,1.73.1,3.45.17,5.32,3.39,1,6.59.44,9.73.53,3.35.1,6.72.06,10.07,0a76,76,0,0,0,9.34-.2c1.11-1.75.73-3.38.74-4.94,0-9.75,0-19.5,0-29.25v-5.45a18,18,0,0,1,2.89-.58c3.2-.07,6.39,0,9.76,0l1.9-3.08c-.39-.45-.58-.85-.78-.86-3-.09-6.06-.12-9.1-.21-1.39,0-2.79-.18-4.28-.28a41.06,41.06,0,0,1-.18-10.44c3.36-.94,6.71-.38,10-.47s6.7,0,10,0c2.23-2.53,4.6-4.68,5.42-8a4.84,4.84,0,0,1,1-1.6c2.18-2.92,4.35-5.85,6.61-8.71a26.48,26.48,0,0,1,2.71-2.69,21.38,21.38,0,0,0,2.07-2c1.47-1.88,2.79-3.88,5-5a3.43,3.43,0,0,0,1.33-1.34,7.78,7.78,0,0,1,4.73-3.75,8.15,8.15,0,0,0,2.57-2.07,16.68,16.68,0,0,1,8.48-4.57,6.74,6.74,0,0,0,1.59.65c3.77.66,7.39,1.59,10.42,4.16a4.12,4.12,0,0,0,2.3.44,2,2,0,0,0,2.23-2c.28-3.17.5-6.35.75-9.53.08-1.09.2-2.18.31-3.37,2.26-1.13,5,.08,6.93-1.61.84-1.58.4-3.1,0-4.66-.85-3.24-1.58-6.51-2.37-9.76a11.46,11.46,0,0,0-.5-1.85c-2.15-5-4-10.14-6.6-14.82a59.77,59.77,0,0,0-11.17-14.84c-1.76-1.62-3.34-3.41-5-5.09a22.46,22.46,0,0,0-3.76-2.86c-3.46-2.23-7-4.28-10.65-6.16-.22-.12-.47-.61-.39-.8.16-.4.5-1,.82-1,2.57-.33,5-.93,7-2.78.51-.47,1.52-.37,2.29-.59.92-.26,2.11-.3,2.68-.91,1.87-2,4.26-2.05,6.64-2,8.15.05,16.3.15,24.44.36a23.17,23.17,0,0,1,4.66,1c2.32.55,4.61,1.29,6.95,1.68a68.28,68.28,0,0,1,8.26,2.19c3.52,1,6.57,3.25,10.25,3.74,4.22,2.56,9.45,2.89,13.41,6.09a13,13,0,0,0,3.39,1.76c1.62.63,3.39,1,4.47,2.54,3.65,1,6,4.06,9.16,5.72,3.81,2,6.34,5.7,10.44,7.16,3,3.42,6.82,6,9.81,9.34,1.24,1.39,1.81,3.26,4,3.59.51.07,1.05.76,1.34,1.29,3.17,5.94,8.16,10.56,11.74,16.2.85,1.33,1.73,2.64,2.55,4,.34.54.44,1.27.87,1.69,3.84,3.83,5.57,8.87,7.52,13.68,2.44,6,5.43,11.84,6.85,18.27.72,3.24,2.39,6.24,2.81,9.59.28,2.21.67,4.41,1.08,6.59a19.48,19.48,0,0,0,.9,2.54l10.38.27c1.11,1.82.6,3.62.7,5.32s0,3.17,0,5a26.21,26.21,0,0,1-3.33.63c-2,.12-4.1.1-6,.14-1,2.07.67,2.77,1.17,3.94l8,.39c.5,6.83.18,13.36.24,19.87s0,13.07,0,19.72a8.63,8.63,0,0,0,2,.61q13.18,0,26.38,0a6.68,6.68,0,0,0,1.38-.3c1.12-1.62.7-3.44.71-5.15.05-9.75,0-19.5,0-29.25,0-1.72-.26-3.49.57-5.4,5.73-.62,11.45-.21,17.16-.29s11.51,0,17.27,0h17.44a22.53,22.53,0,0,1,.7,2.85c.11,1.1,0,2.23,0,3.35q0,27.33,0,54.67c0,1.86.31,3.8-.68,5.89-4.78.27-9.55.1-14.31.13-5,0-9.91,0-14.87,0H703.08c-5,0-9.91,0-14.87,0-4.77,0-9.54-.16-14.27.13-.52,5.26,0,8.55,2.36,14.35,1.1.1,2.33.3,3.56.3q42.95,0,85.87,0c1.28,0,2.55-.14,3.83-.22a19.3,19.3,0,0,1,6.74.65,22.37,22.37,0,0,1,.31,5.75q0,43.4,0,86.79c0,1.44,0,2.88,0,4.31,0,.64-.1,1.47.24,1.87,2.25,2.66,1.74,6,2.47,9.08a66.49,66.49,0,0,1,1,6.62,44.18,44.18,0,0,1-2.65,21.15,16.31,16.31,0,0,0-1.08,5.58c0,4.16,0,8.32,0,12.47,0,12.63.12,25.26,0,37.88-.1,8.13-.09,16.33-1.13,24.36a233.17,233.17,0,0,1-4.19,23.91,236.81,236.81,0,0,1-6.83,24.39c-2.86,8.13-6,16.16-9.26,24.13A225.41,225.41,0,0,1,741,734.65a259.52,259.52,0,0,1-17.6,26.25,289.1,289.1,0,0,1-32.26,36,316.46,316.46,0,0,1-31,25.61,349,349,0,0,1-33.06,21.17,365.4,365.4,0,0,1-42.35,20.14c-9.61,3.89-19.38,7.33-29.25,10.5-3.19,1-6.42,1.89-9.59,3-3.86,1.29-7.56.54-11.28-.54A405.94,405.94,0,0,1,488.3,860c-11.15-4.77-22-10.22-32.64-16.08a340.49,340.49,0,0,1-35.45-22.7c-6.07-4.39-11.81-9.26-17.57-14.07a268.06,268.06,0,0,1-28.85-28,298.92,298.92,0,0,1-23.28-29.8,272.56,272.56,0,0,1-22.45-40,228.83,228.83,0,0,1-10.74-27.65,10.76,10.76,0,0,0-4.24-5.48c-5.31-4.09-9.74-8.88-12-15.58s-1.77-13.19-1.61-19.86c0-1.43.22-2.87.37-4.3,0-.46,0-1.13.28-1.36,2.71-2.16,2.13-5.5,3-8.29a50.47,50.47,0,0,0,1.63-8.91,195.75,195.75,0,0,0,1.1-21q-.13-85.85,0-171.67V419c2.36-1.15,4.58-1,6.8-1s4.47.23,6.7.23H477.49ZM422.65,662.48c-1.57.2-3.18.29-4.73.63a97.57,97.57,0,0,1-23.72,2.59c-4.62-.12-9.25-.06-13.88,0-.51,0-1.34-.28-1.42,1a12.16,12.16,0,0,0,2,.9c2.31.6,4.62,1.26,7,1.65,4.4.73,8.83,1.7,13.31,1a82.27,82.27,0,0,0,20.45-6.48c.44-.2.65-.9,1-1.35l.88-.26ZM451,568.54a34.06,34.06,0,0,1,4.23,0q5.46.78,10.89,1.75a241.74,241.74,0,0,1,31.56,8c23.27,7.47,44.92,18.36,65.53,31.35,10.55,6.65,20.86,13.66,31.32,20.43,6.31,4.09,12.71,8,19.72,10.83a31.83,31.83,0,0,0,10.18,2.56,48.57,48.57,0,0,0,22-3.75c3.22-1.39,6.34-3,9.48-4.59,4.71-2.36,9.32-4.93,14.45-6.35.33-.09.53-.64,1-1.22-4.13-.69-7.88.16-11.65.49-5.83.5-11,2.94-16.08,5.67-.72-2-.74-2-.4-2.78a91.12,91.12,0,0,1,9.69-17.6c8.2-11.35,19.15-19.1,32.06-24.24,4.15-1.65,8.35-3.2,12.51-4.83a33,33,0,0,0,9.89-5.77,7.57,7.57,0,0,0,1.15-1.83c-.49-.35-.73-.62-1-.69a13.49,13.49,0,0,0-2.35-.43c-9.12-.72-18.2-.74-27.15,1.56a7.67,7.67,0,0,1-2.13-.05c.08-.66,0-1,.18-1.25a11.07,11.07,0,0,1,1.65-1.7,68.17,68.17,0,0,1,21.57-11.2,191.8,191.8,0,0,1,19.6-4.53,91.62,91.62,0,0,0,14.78-4,39.47,39.47,0,0,0,13.1-7.82c6.25-5.86,9-13,7.54-21.63-.12-.67-.06-1.66-1.45-1.63l-1.69,3.27c-3.07,6.07-7,11.45-12.52,15.52-.83.61-1.66,1-2.52-.12a5.57,5.57,0,0,1,.15-1.32,59.18,59.18,0,0,0,3-16.92,50,50,0,0,0-4.36-23.81,29.25,29.25,0,0,0-13.53-14.38,36.4,36.4,0,0,0-20-3.42,29.85,29.85,0,0,0-19.05,9.1c-6.26,6.33-9.8,14.09-11.88,22.61a11.34,11.34,0,0,0,0,2.73c2.58,2,5.14,3.93,7.55,6a27.24,27.24,0,0,1,5.86,7.53,28.68,28.68,0,0,1,3.44,9.41c.49,3,1.58,6.11.32,9.17-.46,0-.69,0-.75,0a24.53,24.53,0,0,1-2-2.58,29.47,29.47,0,0,0-14.28-12.32c-11.52-4.66-22.56-3.37-32.89,3.43a23.58,23.58,0,0,0-10.15,14.62c-.92,3.89-1,7.66,2.73,10.39a3.73,3.73,0,0,1,.32.36,41.3,41.3,0,0,1,11,26.94c.23,5.42,0,10.86-.15,16.29a8.59,8.59,0,0,1-.49,2.31c-.07.25-.44.6-.65.59a1.81,1.81,0,0,1-1.24-.47,22.49,22.49,0,0,1-.93-2.19c-1.6-3.3-3-6.72-4.9-9.84-6.28-10.27-15.41-17.38-26-22.69a109.6,109.6,0,0,0-27.66-9.15,182.94,182.94,0,0,0-33.82-3.46c-.36,0-.74.3-1.57.67a21.71,21.71,0,0,0,2.26,1.39c12.76,5.61,22.75,14.66,31.47,25.27a1.38,1.38,0,0,1-.24,2.24c-1.18-.5-2.5-1-3.77-1.61q-18.34-8.88-37.4-16.09c-24.76-9.31-50.09-16.37-76.54-18.85-14.71-1.37-29.38-1.16-43.84,2.34a57.67,57.67,0,0,0-14.78,5.52c-.73.41-1.39.8-.93,1.79,5.06.73,10.11,1.43,15.16,2.21a149.7,149.7,0,0,1,35.39,10.07c11.25,4.75,21.5,11.25,31.67,17.91,9.78,6.4,19.84,12.26,30.94,16.11.69.24,1.45.74,2-.15,0-.19,0-.41,0-.48-2.28-2-4.53-4-6.87-6-15.8-13-33.38-23-52.16-31-1.47-.63-3-1.17-4.4-1.9C451.63,570.12,451.47,569.43,451,568.54Zm86.65-180.09c.22,3.43.41,6.77.64,10.1,1.44,20.57.1,40.85-6.32,60.6a5.46,5.46,0,0,0,0,1.67,4.76,4.76,0,0,0,1.25-.09,105.46,105.46,0,0,0,20.65-12,79.65,79.65,0,0,0,19.1-20,15.1,15.1,0,0,0,2.73-7.52c.41-6.21,1.06-12.41,1.84-18.58a154.45,154.45,0,0,1,8.83-36.69,70.9,70.9,0,0,1,9.27-17.25c1.75-2.31,3-2.64,5.2-.89,3,2.39,5.75,5.06,8.62,7.58.53.47.86,1.43,1.89.92-12.19-27.64-45.94-56.95-76.55-66-1.1,1.06-2.39,2.22-3.58,3.48a101.42,101.42,0,0,0-20.74,33.07c-.57,1.48-1.17,3-1.82,4.41a1,1,0,0,1-.8.35,1,1,0,0,1-.69-.53,3.25,3.25,0,0,1-.21-1.38,76.05,76.05,0,0,1,2.65-15.56c.4-1.33.7-2.7,1-4a2.92,2.92,0,0,0-2,1.25A121.69,121.69,0,0,0,496.26,333a112.51,112.51,0,0,0-6.55,21c-.28,1.29-.6,2.58.31,3.66,2.58,3,5.3,5.91,9.12,7.68a28.43,28.43,0,0,0,2.55-6.34c.59-1.81,1.21-3.62,2-5.37.17-.4.93-.54,1.76-1,0,1.85.11,3.26,0,4.65a207,207,0,0,0-.11,36.84c.52,5.72,1.45,11.39,2.25,17.08.08.51.6,1,.94,1.48,2.94-2.85,5.56-5.62,8.44-8.11,2.15-1.86,2.38-3.94,1.74-6.45-2.26-8.79-1.9-17.74-1.47-26.68.06-1.25.37-2.48.58-3.88,1.27-.48,2.44-1,3.62-1.35,2.73-.91,5.49-1.69,8.19-2.67a143.6,143.6,0,0,0,33.25-17.84c3.64-2.55,4.32-2.29,5.26,2,2.11,9.62,2.19,19.33,1.3,29.08a72.53,72.53,0,0,1-1.27,7.55c-.18.91-.56,1.88-2.26,1.49-1.31-4.29-.34-9.3-2.76-13.66a7.67,7.67,0,0,0-1.42.8A66.54,66.54,0,0,1,540,386.83,14.45,14.45,0,0,0,537.61,388.45ZM378.15,650.36A12.09,12.09,0,0,0,380,651a121.78,121.78,0,0,0,22.38-2.28,131.47,131.47,0,0,0,26.4-8.47c14.32-6,28.87-11.24,44.37-13.28a10.6,10.6,0,0,0,2.38-1.07c-.89-.78-1.43-1.33-2-1.79-7.54-5.65-15.06-11.33-22.64-16.93-9.52-7-19.1-14-29.25-20a146.59,146.59,0,0,0-20.93-10.57,10.26,10.26,0,0,0-6.49-.55A192,192,0,0,0,364,585.4a103.12,103.12,0,0,0-24,13.81c-.82.64-2.05,1.06-1.81,2.77,1.21-.07,2.44-.09,3.65-.23,7.46-.86,14.91-1.81,22.37-2.61,7-.74,14-1.35,21-2,1.2-.11,2.49-.89,3.56.33.6.68-.23,1.4-2.87,2.45A313.78,313.78,0,0,0,340.24,622c-5.77,3.43-11.49,7-16.41,11.59a28.21,28.21,0,0,0-4.62,5.44c-1.95,3.12-1,5.85,2.35,7.45a22.39,22.39,0,0,0,5.45,1.69,22.16,22.16,0,0,0,10.9-.91c6.07-1.94,12.14-3.93,18.1-6.22,11.62-4.46,23.19-9,35.12-12.66a203.94,203.94,0,0,1,53.25-8.86c2.56-.07,5.11,0,7.67,0,.49,0,1,.49,2,1.08a22.42,22.42,0,0,1-3.43,1.65,360.26,360.26,0,0,0-65.84,24.61C382.83,647.86,380.9,648.93,378.15,650.36ZM538.88,518.6c1.53-.26,2.46-.34,3.34-.57A79.89,79.89,0,0,1,562.66,516a8.75,8.75,0,0,1,2.35.29,1.31,1.31,0,0,1,.76,1,1.62,1.62,0,0,1-.79,1.07,4.47,4.47,0,0,1-1.36.38c-3.53,1-7.15,1.73-10.57,3-5.85,2.16-11.53,4.77-16.31,8.91a22.58,22.58,0,0,0-4.18,4.56c-2.55,3.92-1.49,6.61,2.9,8a27,27,0,0,0,2.78.72A63,63,0,0,0,553,545.49c4.95-.18,9.89-.44,14.83-.75a95.69,95.69,0,0,0,24.85-4.81,63.55,63.55,0,0,0,18.1-9.62c5.64-4.28,6.23-10.44-1.51-14.15-3-1.43-6.34-2.08-9.52-3.09l-2-.64c.11-.66,0-1.1.22-1.23,3-2.39,7.13-1.76,10.67-3.47a7.1,7.1,0,0,0-1.26-1.17,43.41,43.41,0,0,0-9.46-3.33c-15.54-3.47-30.46-1.29-44.93,4.92a41,41,0,0,0-12.35,8.1A18.69,18.69,0,0,0,538.88,518.6Zm-152.77,7.17c1.37,0,2.28,0,3.18,0a47.08,47.08,0,0,1,17.41,2.75c1.17.41,2.42.83,2.44,2.69a11.56,11.56,0,0,1-2.22.53,78.23,78.23,0,0,0-18.85,3.2A67.31,67.31,0,0,0,365,546.28a48.36,48.36,0,0,0-16.54,23,10.47,10.47,0,0,0-.76,5.09,5.26,5.26,0,0,0,1.62-.13c7.83-4,15.71-7.87,24.4-9.73a4.87,4.87,0,0,0,3-2.27c1.36-2,2.73-3.94,4.22-5.82,8.74-11,19.52-18.76,33.59-21.4a28.65,28.65,0,0,0,3.5-1.13c6.75-16.88,19.11-26.58,36.91-29.64-.4-.67-.53-1.23-.88-1.43a30.4,30.4,0,0,0-11.2-4,59.51,59.51,0,0,0-40.89,8.53A40.4,40.4,0,0,0,387,523.21,21.41,21.41,0,0,0,386.11,525.77ZM519,520.82a10.68,10.68,0,0,0-1.47-2,42.46,42.46,0,0,0-4.75-3.2c-11.62-6.22-24.09-8.3-37.11-7.21A47.5,47.5,0,0,0,456.93,514c-.67.36-1.47.68-1.26,1.76,2.23,0,4.46-.13,6.67,0a45,45,0,0,1,6.1,1c.47.1.81.75,1.4,1.33-2.2,1.18-4.3,1.25-6.29,1.67a47.92,47.92,0,0,0-11.8,3.89c-2.61,1.33-5.3,3-5.27,6.26,0,2.92,2.33,4.88,4.84,6.11a71.92,71.92,0,0,0,9.25,3.86,83.23,83.23,0,0,0,18.33,3.47c9.1.85,18.21,1,27.24-.64a28.07,28.07,0,0,0,7.67-2.57c4.26-2.19,5-5.85,1.91-9.47a26.2,26.2,0,0,0-6.18-5.21c-3.12-1.91-6.53-3.33-9.8-5a17.62,17.62,0,0,1-2.22-1.69,10.25,10.25,0,0,1,2.53-.91,45.47,45.47,0,0,1,13.28,1.54C515,519.86,516.66,520.24,519,520.82Zm115-24.64a22.09,22.09,0,0,0-1.46-2.09,139.51,139.51,0,0,1-33.28-59.47,9.61,9.61,0,0,0-.6-1.81c-.22-.45-.13-1.36-1.34-1-.24,1.13-.53,2.35-.77,3.58a73.17,73.17,0,0,1-4.93,16.94c-2.27,4.92-4.77,9.73-7.19,14.58-3.27,6.56-6.57,13.11-9.81,19.68a20.08,20.08,0,0,0-.94,3c.49.28.76.55,1,.56a17.24,17.24,0,0,0,2.38-.11,152.83,152.83,0,0,1,24.85-.83,89.8,89.8,0,0,1,24.41,4.31ZM630.26,452c4.51,12.62,19.86,33.4,30.49,39,1.29-1.72,2.57-3.53,4-5.26a55.1,55.1,0,0,1,4.09-4.67c1.59-1.57,3.36-2.94,5.05-4.4s3.84-2.11,5.35-3.74C670,463.29,645.61,453.45,630.26,452ZM530.65,715.59a70.77,70.77,0,0,0,.09,16.39,23.83,23.83,0,0,0,3.13.44c7.49,0,15,0,22.49,0a11.12,11.12,0,0,0,2.38-.14,4.23,4.23,0,0,0,3.65-3.36c.53-3,.83-6.07-.24-8.95a10.5,10.5,0,0,1-.68-4.15c.07-1.75.1-3.5,0-5.26-.15-4.29-1.57-5.77-5.77-5.8-7.5-.06-15,0-22.5,0a16.33,16.33,0,0,0-2.7.43,9.52,9.52,0,0,0,.11,5.38c1.51.83,3.14.57,4.71.58,4.47,0,8.93,0,13.4,0,1.4,0,2.9-.27,4.31,1-.13.85-.28,1.86-.44,2.92C545.2,715.7,538,715,530.65,715.59ZM513.2,476.5a8.49,8.49,0,0,0,0,2.13,69.72,69.72,0,0,0,7,16.2,20.63,20.63,0,0,0,3.18,4.17c4.12,4,7.25,4.79,12.48,2a10.73,10.73,0,0,0,2-1.3,81.21,81.21,0,0,0,7.05-6.43,74.76,74.76,0,0,0,13.81-22.79c.15-.37,0-.87-.11-1.77-2,1.26-3.71,2.34-5.42,3.44a65.79,65.79,0,0,1-12.72,6.58c-8.53,3.2-16.84,3.06-25-1.32A21.94,21.94,0,0,0,513.2,476.5Zm-21,293.24c1,.9,1.71,1.47,2.34,2.12,3.44,3.57,6.83,7.18,10.28,10.73.77.78,1.66,1.83,2.6,2a17,17,0,0,0,7.86-.22c.76-4.68.7-22.77-.08-26.61a14.07,14.07,0,0,0-7.15,0c-.12,1.29-.31,2.53-.33,3.78-.06,2.87,0,5.75-.06,8.62,0,.77,0,1.64-1.22,1.87-4.86-4.66-9.19-10-14.16-14.58-2.9,0-5.6-.44-8.29.3a4.6,4.6,0,0,0-.49,1.38q0,12,0,24a5.56,5.56,0,0,0,.59,1.56c1.37.06,2.78.19,4.2.17a23.37,23.37,0,0,0,2.86-.37C492.44,779.69,490.91,774.85,492.2,769.74Zm82.93,14.59c4.5.74,4.67.73,7.59-.62,0-2.09,0-4.31.1-6.53s-.33-4.67.48-7.5c1.17,1.08,2,1.77,2.73,2.54,3.32,3.45,6.61,6.95,10,10.38.76.78,1.66,1.83,2.6,2,2.63.37,5.34.63,7.85-.22.76-4.74.7-22.81-.08-26.61a14,14,0,0,0-7.16,0c-.11,1.29-.3,2.53-.32,3.78-.06,2.87,0,5.75-.06,8.62,0,.77,0,1.64-1.22,1.86-4.86-4.67-9.2-10-14.26-14.67-2.2,0-4.27,0-6.34,0a12.45,12.45,0,0,0-2,.37,8,8,0,0,0-.44,1.87q0,11.73.06,23.48A3.76,3.76,0,0,0,575.13,784.33Zm-127.5-26.71c-1.68-.13-2.92-.3-4.16-.31-7,0-14.05,0-21.08,0a23.83,23.83,0,0,0-2.39.05c-2.56.26-4.11,1.69-4.3,4.28a57.18,57.18,0,0,0-.05,7.17c.2,4,1.56,5.35,5.6,5.66,1.11.08,2.24,0,3.35,0,3.52,0,7,0,10.54,0,1.24,0,2.47.24,3.53.35a2.55,2.55,0,0,1-.51,3.58c-3.34,0-7,0-10.64.07s-7.59-.2-11.29.18c-.64,3.23-.64,3.23.22,6,1.49,0,3.07.12,4.65.12h18.2c1.28,0,2.56.06,3.83,0,2.84-.2,4.42-1.69,4.63-4.47.14-1.9.08-3.82.05-5.74-.09-5.44-1.36-6.74-6.85-6.83-4.15-.07-8.3,0-12.45,0a18.52,18.52,0,0,1-3.33-.23c-.86-.17-1.19-1-1.18-1.83s.35-1.68,1.19-1.85a16.85,16.85,0,0,1,3.34-.18c5.27,0,10.53,0,15.8,0a24.47,24.47,0,0,0,3.3-.47Zm158.86-34.08a5.62,5.62,0,0,1,6.75,1.54,50.29,50.29,0,0,0,3.91,3.52c5.21,4.48,3.31,3.78,10.19,3.82,1.34,0,2.84.48,4.22-.85-2.33-3.13-5.85-5-8.22-8.24.89-.42,1.57-.8,2.29-1.08a5.2,5.2,0,0,0,3.66-5.53c-.06-2.55.08-5.11-.08-7.66a4.4,4.4,0,0,0-4.33-4.26,17.34,17.34,0,0,0-1.91,0c-7,0-14.06,0-21.08,0-1.09,0-2.17.2-3.36.31-.4,2-.65,3.87.32,5.95,1.75.05,3.48.14,5.22.16,4.95,0,9.9,0,14.85.11a5.34,5.34,0,0,1,1.61.52c.59,1.65.71,3-.73,4.37h-7c-2.4,0-4.8,0-7.19,0s-4.74-.37-7,.37c-.78,4.87-.7,11.84.18,15.54a14.2,14.2,0,0,0,7.15-.21C606.18,729,606.34,726.22,606.49,723.54Zm-32.1-.9c3.27-1.53,7,.38,10.25-1.29a9.88,9.88,0,0,0-.24-5.86c-3-.08-5.83-.13-8.68-.24a6.35,6.35,0,0,1-1.51-.54c.11-1.05.22-2.07.35-3.22,3.47-.52,6.66-.16,9.82-.32,3.31-.16,6.68.54,10-.56a8.92,8.92,0,0,0-.29-5.86H584.9c-3.19,0-6.39,0-9.58,0-3,0-6-.28-9.2.35a129.72,129.72,0,0,0-.18,13.61c.06,4.39-.52,8.84.46,13.35a20.14,20.14,0,0,0,2.54.34q12,0,24-.08a5.29,5.29,0,0,0,1.39-.49,9.36,9.36,0,0,0,0-5.78c-6.66-.39-13.19.16-19.86-.34ZM489.3,380.12A59,59,0,0,0,488,392.76c-.07,13.39-.06,26.78,0,40.17a13.77,13.77,0,0,0,.45,4.26c2.5,7.48,6,14.41,12,19.81a8.39,8.39,0,0,0,2,.89c-.3-1.12-.48-1.69-.61-2.27-1-4.35-2.26-8.66-2.85-13.06-1.68-12.48-2.56-25-3.05-37.63-.18-4.62-.34-9.24-.62-13.85a8.3,8.3,0,0,0-.89-3.65C493,385.13,491.35,383,489.3,380.12ZM488,714.35c.12-1.21.26-2,.26-2.76,0-4.78-1.77-6.73-6.55-6.81-6.55-.1-13.1-.11-19.64,0-4.13.09-5.84,1.86-5.9,5.88-.09,5.26-.08,10.53,0,15.8.05,3.67,1.45,5.6,5,5.73,7.33.27,14.68.27,22,0,3.46-.13,5-2.28,5.08-5.76,0-1.07-.14-2.15-.23-3.48-1.65-.11-3.06-.11-4.44-.31-2.35-.34-3.42,1-4,3.16-4.35,0-8.49,0-12.63,0a15.85,15.85,0,0,1-2.85-.58c0-2.44-.09-4.67,0-6.89s-.54-4.44.64-6.69h14.79l1.34,2.73Zm140.73,59.49c.39-1.92.62-3.76-.19-5.49-3.39-1.08-6.86.38-10.23-1.12.1-1.15.19-2.18.3-3.39,3.4-.45,6.58-.16,9.75-.25s6.65.22,10.14-.27c.31-2.11.67-3.91-.35-5.77a118.42,118.42,0,0,0-14-.22c-4.56,0-9.17-.5-13.7.41a7.68,7.68,0,0,0-.44,1.59q0,11.73,0,23.47a6.15,6.15,0,0,0,.64,1.77,126.29,126.29,0,0,0,14,.2c4.57-.06,9.18.53,13.8-.45a11.47,11.47,0,0,0-.13-5.58c-6.59-.59-13.12.2-19.36-.47a2.39,2.39,0,0,1-.13-3.32C622.06,773.78,625.58,775.33,628.77,773.84Zm-60.6-477a10.36,10.36,0,0,0,1.32,1.18,164.82,164.82,0,0,1,29.2,22.45,14.94,14.94,0,0,0,2.22,1.82c3.86,2.59,7.52.92,9.55-1.23,2.84-3,3-6.18.53-9.49a30.92,30.92,0,0,0-7.8-7c-7.8-5.15-16.49-7.56-25.71-8.26-2.7-.21-5.43-.14-8.14-.15C569.08,296.1,568.83,296.39,568.17,296.8ZM452,784.71c9,0,17.76,0,26.53,0,.41,0,.82-.39,1.33-.65a8.11,8.11,0,0,0-.37-5.35c-1.56-.05-3.13-.15-4.69-.16-4.63,0-9.26,0-13.88-.12a3.93,3.93,0,0,1-1.25-.51V775c3.39-1.13,6.87.2,10.17-1.09a22.36,22.36,0,0,0,.31-2.81,27.73,27.73,0,0,0-.28-3l-10.27-.45v-3.78c6.74-.88,13.44.26,20.21-.7.32-2.05.78-3.86-.64-5.91-4.5,0-9.12-.09-13.73,0s-9.16-.53-13.61.44C451.16,762.69,451.24,780.42,452,784.71ZM633.65,670a5.93,5.93,0,0,0-1.32-.21c-9.81,1.27-19.45.07-29-2.09a192.56,192.56,0,0,1-27.86-8.71,405.25,405.25,0,0,1-57.92-28.63,6.8,6.8,0,0,0-3.87-1.48c1.24,1,1.94,1.64,2.72,2.15,7.1,4.62,14.14,9.33,21.34,13.79a253,253,0,0,0,41.33,21.13c10.47,4.06,21.2,7.13,32.49,7.81a52.57,52.57,0,0,0,19.84-2.5A14.3,14.3,0,0,0,633.65,670ZM469.88,497.57c4.52-.8,8.56-1.69,12.64-2.19s8.19-.6,12.35-.88a20,20,0,0,0,.82-3c.39-3.66.78-7.31,1-11a78.94,78.94,0,0,0,0-8.14,8.84,8.84,0,0,0-.89-2.49C484.29,472.19,471.38,485.89,469.88,497.57ZM527.5,704.9h-9.86c-3.19,2.43-5.09,5.89-8.41,8.12-1.28-1.28-2.42-2.37-3.51-3.51-4.68-4.9-4.68-4.92-11.5-4.74-.84,0-2-.43-2.44,1.17l13.49,14.44c0,2.2,0,4.12,0,6s-.32,3.79.59,5.88c2.42,0,4.73.67,7.06-.46.73-2.9.37-5.78.34-8.62a6.14,6.14,0,0,1,1.83-4.7c3.33-3.43,6.58-6.94,9.84-10.45C525.66,707.28,526.27,706.41,527.5,704.9Zm43.24,52.79c-6.37-.68-15.7-.53-19.3.28-.27,1.77-.65,3.6.35,5.37l4.68.55c.88,4.52.81,11-.15,14.41l-4.51.45c-.64,3-.64,3,.13,6,3.06,0,6.23.18,9.39.07s6.33.61,9.38-.59a9.16,9.16,0,0,0-.25-5.41c-.85-.09-1.62-.15-2.39-.25s-1.8-.28-2.81-.44a85.09,85.09,0,0,1,.06-14.19l5.42-.63ZM537.35,764c3.64-.87,6.9.19,10.07-.87a12,12,0,0,0-.1-5.5c-3.25-.55-6.43-.25-9.58-.3s-6.07-.09-9.1,0-6.32-.5-9.5.54a24.21,24.21,0,0,0-.22,2.55c0,.91.22,1.82.37,3l9.35.45c.14,1.51.35,2.75.36,4,0,4.47,0,8.94,0,13.42a28.79,28.79,0,0,0,.41,3.28c2.57.35,4.88.6,7.33-.25C537.45,777.45,536.57,770.76,537.35,764Zm105.21-6.41c-.1,1.42-.23,2.35-.23,3.29q0,11.26.14,22.53c0,.27.26.55.47,1a4,4,0,0,0,1.21.38q12.47,0,24.94,0a5.86,5.86,0,0,0,1.71-.61c.27-1.91.6-3.62-.57-5.54-3.08,0-6.26,0-9.44-.06a94.92,94.92,0,0,1-10.19-.22c-.11-1.52-.27-2.76-.28-4,0-4.47,0-8.95,0-13.42a27.28,27.28,0,0,0-.44-3.3c-1.34-.1-2.44-.25-3.54-.25S644.11,757.46,642.56,757.57ZM622.71,403.51a43.26,43.26,0,0,1-2.45,4.7,48.88,48.88,0,0,1-3.57,4.08c0,1.85-.67,3.95,1,5.66,6.79.68,21.49.48,24.79-.36a12,12,0,0,0-.56-1.26,4,4,0,0,0-.83-1.14,29.44,29.44,0,0,1-8-9.77,3.22,3.22,0,0,0-3.07-1.91ZM608.63,297.3C604.45,289.07,583,277,573,276.45a22.68,22.68,0,0,0,.15,9.9c4.21.64,8.33,1,12.33,1.94a83.42,83.42,0,0,1,11.88,3.61C601.11,293.38,604.68,295.39,608.63,297.3ZM767.76,543.81c-.78,2.18-1.26,3.67-1.84,5.12-.66,1.61-1.34,3.22-2.14,4.77a38.32,38.32,0,0,1-2.45,4.08,41.38,41.38,0,0,1-3.16,4.16c-1.85,2.08-1.87,2-2.16,3.87a33.18,33.18,0,0,0,8.66-6.82C768.26,554.79,769.67,550,767.76,543.81ZM340.62,667.67c-2.53-.16-3.89-.28-5.25-.33s-2.87,0-4.3-.11a41,41,0,0,1-4.26-.53c-1.56-.28-3.12-.63-4.65-1s-2.73-.85-4.1-1.25-2.23-1.69-4.11-1.36c2.13,4,5.52,5.55,9.31,6.39,4.92,1.08,9.81.31,14.67-.58A17.3,17.3,0,0,0,340.62,667.67Zm365.73-60.75c-1.09.21-1.85.29-2.57.5q-8.71,2.52-17.43,5.08a35.53,35.53,0,0,0-3.59,1.26c-.46.19-.79.69-2,1.79l16.44-3.06c1.72-.32,3.45-.63,5.15-1C704.54,610.91,705.84,609.56,706.35,606.92Z" transform="translate(-299.27 -202.06)"/><path d="M359.33,321.5v9.85c-1.21,1.47-2.74,1-4.11,1-10.36,0-20.72,0-31.08,0-4.46,0-8.93,0-13.39,0-1.4,0-2.8-.19-4.25-.29-.94-1.86-.55-3.63-.62-5.33s0-3.16,0-4.95a15.14,15.14,0,0,1,2.89-.59q23.91-.06,47.81,0C357.34,321.22,358.11,321.37,359.33,321.5Z" transform="translate(-299.27 -202.06)"/><path d="M389.47,332.08V321.82a9.48,9.48,0,0,1,2.21-.57q24.38,0,48.75,0a10.33,10.33,0,0,1,1.61.27c1.3,3.33.36,6.74.55,10.32a19.1,19.1,0,0,1-3.08.55q-23.42.06-46.84,0C391.75,332.4,390.82,332.22,389.47,332.08Z" transform="translate(-299.27 -202.06)"/><path d="M723.37,332.17a33.58,33.58,0,0,1-.07-10.63c4.37-.69,8.65-.25,12.9-.32,4.46-.08,8.92,0,13.38,0,4.31,0,8.61,0,12.91,0s8.57-.13,13.08.15c1.07,3.58.42,7,.42,10.55a20.81,20.81,0,0,1-3.07.49q-23.43,0-46.85,0C725.29,332.4,724.52,332.27,723.37,332.17Z" transform="translate(-299.27 -202.06)"/><path class="cls-1" d="M451,568.54c.51.89.67,1.58,1.08,1.79,1.42.73,2.93,1.27,4.4,1.9,18.78,8,36.36,18,52.16,31,2.34,1.93,4.59,4,6.87,6,.08.07,0,.29,0,.48-.6.89-1.36.39-2,.15-11.1-3.85-21.16-9.71-30.94-16.11-10.17-6.66-20.42-13.16-31.67-17.91a149.7,149.7,0,0,0-35.39-10.07c-5.05-.78-10.1-1.48-15.16-2.21-.46-1,.2-1.38.93-1.79A57.67,57.67,0,0,1,416,556.21c14.46-3.5,29.13-3.71,43.84-2.34,26.45,2.48,51.78,9.54,76.54,18.85q19.07,7.18,37.4,16.09c1.27.62,2.59,1.11,3.77,1.61a1.38,1.38,0,0,0,.24-2.24c-8.72-10.61-18.71-19.66-31.47-25.27a21.71,21.71,0,0,1-2.26-1.39c.83-.37,1.21-.68,1.57-.67a182.94,182.94,0,0,1,33.82,3.46,109.6,109.6,0,0,1,27.66,9.15c10.62,5.31,19.75,12.42,26,22.69,1.9,3.12,3.3,6.54,4.9,9.84a22.49,22.49,0,0,0,.93,2.19,1.81,1.81,0,0,0,1.24.47c.21,0,.58-.34.65-.59a8.59,8.59,0,0,0,.49-2.31c.1-5.43.38-10.87.15-16.29a41.3,41.3,0,0,0-11-26.94,3.73,3.73,0,0,0-.32-.36c-3.68-2.73-3.65-6.5-2.73-10.39a23.58,23.58,0,0,1,10.15-14.62c10.33-6.8,21.37-8.09,32.89-3.43A29.47,29.47,0,0,1,684.82,546a24.53,24.53,0,0,0,2,2.58c.06.08.29,0,.75,0,1.26-3.06.17-6.16-.32-9.17a28.68,28.68,0,0,0-3.44-9.41,27.24,27.24,0,0,0-5.86-7.53c-2.41-2.08-5-4-7.55-6a11.34,11.34,0,0,1,0-2.73c2.08-8.52,5.62-16.28,11.88-22.61a29.85,29.85,0,0,1,19.05-9.1,36.4,36.4,0,0,1,20,3.42,29.25,29.25,0,0,1,13.53,14.38,50,50,0,0,1,4.36,23.81,59.18,59.18,0,0,1-3,16.92,5.57,5.57,0,0,0-.15,1.32c.86,1.12,1.69.73,2.52.12,5.54-4.07,9.45-9.45,12.52-15.52l1.69-3.27c1.39,0,1.33,1,1.45,1.63,1.47,8.59-1.29,15.77-7.54,21.63a39.47,39.47,0,0,1-13.1,7.82,91.62,91.62,0,0,1-14.78,4,191.8,191.8,0,0,0-19.6,4.53,68.17,68.17,0,0,0-21.57,11.2,11.07,11.07,0,0,0-1.65,1.7c-.16.2-.1.59-.18,1.25a7.67,7.67,0,0,0,2.13.05c8.95-2.3,18-2.28,27.15-1.56a13.49,13.49,0,0,1,2.35.43c.28.07.52.34,1,.69a7.57,7.57,0,0,1-1.15,1.83,33,33,0,0,1-9.89,5.77c-4.16,1.63-8.36,3.18-12.51,4.83C672,594.22,661.08,602,652.88,613.32a91.12,91.12,0,0,0-9.69,17.6c-.34.8-.32.8.4,2.78,5.07-2.73,10.25-5.17,16.08-5.67,3.77-.33,7.52-1.18,11.65-.49-.45.58-.65,1.13-1,1.22-5.13,1.42-9.74,4-14.45,6.35-3.14,1.58-6.26,3.2-9.48,4.59a48.57,48.57,0,0,1-22,3.75,31.83,31.83,0,0,1-10.18-2.56c-7-2.81-13.41-6.74-19.72-10.83-10.46-6.77-20.77-13.78-31.32-20.43-20.61-13-42.26-23.88-65.53-31.35a241.74,241.74,0,0,0-31.56-8q-5.43-1-10.89-1.75A34.06,34.06,0,0,0,451,568.54Z" transform="translate(-299.27 -202.06)"/><path class="cls-1" d="M537.61,388.45a14.45,14.45,0,0,1,2.43-1.62A66.54,66.54,0,0,0,561.68,373a7.67,7.67,0,0,1,1.42-.8c2.42,4.36,1.45,9.37,2.76,13.66,1.7.39,2.08-.58,2.26-1.49a72.53,72.53,0,0,0,1.27-7.55c.89-9.75.81-19.46-1.3-29.08-.94-4.31-1.62-4.57-5.26-2a143.6,143.6,0,0,1-33.25,17.84c-2.7,1-5.46,1.76-8.19,2.67-1.18.39-2.35.87-3.62,1.35-.21,1.4-.52,2.63-.58,3.88-.43,8.94-.79,17.89,1.47,26.68.64,2.51.41,4.59-1.74,6.45-2.88,2.49-5.5,5.26-8.44,8.11-.34-.52-.86-1-.94-1.48-.8-5.69-1.73-11.36-2.25-17.08a207,207,0,0,1,.11-36.84c.12-1.39,0-2.8,0-4.65-.83.44-1.59.58-1.76,1-.75,1.75-1.37,3.56-2,5.37a28.43,28.43,0,0,1-2.55,6.34c-3.82-1.77-6.54-4.65-9.12-7.68-.91-1.08-.59-2.37-.31-3.66a112.51,112.51,0,0,1,6.55-21,121.69,121.69,0,0,1,12.3-21.61,2.92,2.92,0,0,1,2-1.25c-.34,1.35-.64,2.72-1,4a76.05,76.05,0,0,0-2.65,15.56,3.25,3.25,0,0,0,.21,1.38,1,1,0,0,0,.69.53,1,1,0,0,0,.8-.35c.65-1.45,1.25-2.93,1.82-4.41a101.42,101.42,0,0,1,20.74-33.07c1.19-1.26,2.48-2.42,3.58-3.48,30.61,9,64.36,38.32,76.55,66-1,.51-1.36-.45-1.89-.92-2.87-2.52-5.63-5.19-8.62-7.58-2.18-1.75-3.45-1.42-5.2.89a70.9,70.9,0,0,0-9.27,17.25,154.45,154.45,0,0,0-8.83,36.69c-.78,6.17-1.43,12.37-1.84,18.58a15.1,15.1,0,0,1-2.73,7.52,79.65,79.65,0,0,1-19.1,20,105.46,105.46,0,0,1-20.65,12,4.76,4.76,0,0,1-1.25.09,5.46,5.46,0,0,1,0-1.67c6.42-19.75,7.76-40,6.32-60.6C538,395.22,537.83,391.88,537.61,388.45Z" transform="translate(-299.27 -202.06)"/><path class="cls-1" d="M378.15,650.36c2.75-1.43,4.68-2.5,6.66-3.46a360.26,360.26,0,0,1,65.84-24.61,22.42,22.42,0,0,0,3.43-1.65c-1.07-.59-1.54-1.07-2-1.08-2.56-.07-5.11-.09-7.67,0a203.94,203.94,0,0,0-53.25,8.86c-11.93,3.61-23.5,8.2-35.12,12.66-6,2.29-12,4.28-18.1,6.22a22.16,22.16,0,0,1-10.9.91,22.39,22.39,0,0,1-5.45-1.69c-3.39-1.6-4.3-4.33-2.35-7.45a28.21,28.21,0,0,1,4.62-5.44c4.92-4.62,10.64-8.16,16.41-11.59a313.78,313.78,0,0,1,45.65-22.1c2.64-1,3.47-1.77,2.87-2.45-1.07-1.22-2.36-.44-3.56-.33-7,.65-14,1.26-21,2-7.46.8-14.91,1.75-22.37,2.61-1.21.14-2.44.16-3.65.23-.24-1.71,1-2.13,1.81-2.77a103.12,103.12,0,0,1,24-13.81A192,192,0,0,1,394.16,576a10.26,10.26,0,0,1,6.49.55,146.59,146.59,0,0,1,20.93,10.57c10.15,6.08,19.73,13,29.25,20,7.58,5.6,15.1,11.28,22.64,16.93.62.46,1.16,1,2,1.79a10.6,10.6,0,0,1-2.38,1.07c-15.5,2-30.05,7.27-44.37,13.28a131.47,131.47,0,0,1-26.4,8.47A121.78,121.78,0,0,1,380,651,12.09,12.09,0,0,1,378.15,650.36Z" transform="translate(-299.27 -202.06)"/><path class="cls-1" d="M538.88,518.6a18.69,18.69,0,0,1,1.71-2.35,41,41,0,0,1,12.35-8.1c14.47-6.21,29.39-8.39,44.93-4.92a43.41,43.41,0,0,1,9.46,3.33,7.1,7.1,0,0,1,1.26,1.17c-3.54,1.71-7.64,1.08-10.67,3.47-.18.13-.11.57-.22,1.23l2,.64c3.18,1,6.54,1.66,9.52,3.09,7.74,3.71,7.15,9.87,1.51,14.15a63.55,63.55,0,0,1-18.1,9.62,95.69,95.69,0,0,1-24.85,4.81c-4.94.31-9.88.57-14.83.75a63,63,0,0,1-14.74-1.55,27,27,0,0,1-2.78-.72c-4.39-1.41-5.45-4.1-2.9-8a22.58,22.58,0,0,1,4.18-4.56c4.78-4.14,10.46-6.75,16.31-8.91,3.42-1.27,7-2,10.57-3a4.47,4.47,0,0,0,1.36-.38,1.62,1.62,0,0,0,.79-1.07,1.31,1.31,0,0,0-.76-1,8.75,8.75,0,0,0-2.35-.29A79.89,79.89,0,0,0,542.22,518C541.34,518.26,540.41,518.34,538.88,518.6Z" transform="translate(-299.27 -202.06)"/><path class="cls-1" d="M386.11,525.77a21.41,21.41,0,0,1,.9-2.56,40.4,40.4,0,0,1,14.91-15.88,59.51,59.51,0,0,1,40.89-8.53,30.4,30.4,0,0,1,11.2,4c.35.2.48.76.88,1.43-17.8,3.06-30.16,12.76-36.91,29.64a28.65,28.65,0,0,1-3.5,1.13c-14.07,2.64-24.85,10.44-33.59,21.4-1.49,1.88-2.86,3.85-4.22,5.82a4.87,4.87,0,0,1-3,2.27c-8.69,1.86-16.57,5.72-24.4,9.73a5.26,5.26,0,0,1-1.62.13,10.47,10.47,0,0,1,.76-5.09,48.36,48.36,0,0,1,16.54-23,67.31,67.31,0,0,1,23.08-11.34,78.23,78.23,0,0,1,18.85-3.2,11.56,11.56,0,0,0,2.22-.53c0-1.86-1.27-2.28-2.44-2.69a47.08,47.08,0,0,0-17.41-2.75C388.39,525.8,387.48,525.77,386.11,525.77Z" transform="translate(-299.27 -202.06)"/><path class="cls-1" d="M519,520.82c-2.31-.58-4-1-5.64-1.41a45.47,45.47,0,0,0-13.28-1.54,10.25,10.25,0,0,0-2.53.91,17.62,17.62,0,0,0,2.22,1.69c3.27,1.68,6.68,3.1,9.8,5a26.2,26.2,0,0,1,6.18,5.21c3.09,3.62,2.35,7.28-1.91,9.47a28.07,28.07,0,0,1-7.67,2.57c-9,1.65-18.14,1.49-27.24.64a83.23,83.23,0,0,1-18.33-3.47,71.92,71.92,0,0,1-9.25-3.86c-2.51-1.23-4.81-3.19-4.84-6.11,0-3.23,2.66-4.93,5.27-6.26a47.92,47.92,0,0,1,11.8-3.89c2-.42,4.09-.49,6.29-1.67-.59-.58-.93-1.23-1.4-1.33a45,45,0,0,0-6.1-1c-2.21-.17-4.44,0-6.67,0-.21-1.08.59-1.4,1.26-1.76a47.5,47.5,0,0,1,18.71-5.57c13-1.09,25.49,1,37.11,7.21a42.46,42.46,0,0,1,4.75,3.2A10.68,10.68,0,0,1,519,520.82Z" transform="translate(-299.27 -202.06)"/><path class="cls-1" d="M634,496.18l-7.64-2.6a89.8,89.8,0,0,0-24.41-4.31,152.83,152.83,0,0,0-24.85.83,17.24,17.24,0,0,1-2.38.11c-.28,0-.55-.28-1-.56a20.08,20.08,0,0,1,.94-3c3.24-6.57,6.54-13.12,9.81-19.68,2.42-4.85,4.92-9.66,7.19-14.58a73.17,73.17,0,0,0,4.93-16.94c.24-1.23.53-2.45.77-3.58,1.21-.38,1.12.53,1.34,1a9.61,9.61,0,0,1,.6,1.81,139.51,139.51,0,0,0,33.28,59.47A22.09,22.09,0,0,1,634,496.18Z" transform="translate(-299.27 -202.06)"/><path class="cls-1" d="M630.26,452c15.35,1.45,39.69,11.29,48.94,21-1.51,1.63-3.7,2.33-5.35,3.74s-3.46,2.83-5.05,4.4a55.1,55.1,0,0,0-4.09,4.67c-1.39,1.73-2.67,3.54-4,5.26C650.12,485.4,634.77,464.62,630.26,452Z" transform="translate(-299.27 -202.06)"/><path class="cls-1" d="M530.65,715.59c7.39-.63,14.55.11,22-.45.16-1.06.31-2.07.44-2.92-1.41-1.29-2.91-1-4.31-1-4.47,0-8.93,0-13.4,0-1.57,0-3.2.25-4.71-.58a9.52,9.52,0,0,1-.11-5.38,16.33,16.33,0,0,1,2.7-.43c7.5,0,15-.07,22.5,0,4.2,0,5.62,1.51,5.77,5.8.06,1.76,0,3.51,0,5.26a10.5,10.5,0,0,0,.68,4.15c1.07,2.88.77,6,.24,8.95a4.23,4.23,0,0,1-3.65,3.36,11.12,11.12,0,0,1-2.38.14c-7.5,0-15,0-22.49,0a23.83,23.83,0,0,1-3.13-.44A70.77,70.77,0,0,1,530.65,715.59Zm7.83,10.2c2.27.05,4,.11,5.73.13s3.2.09,4.79,0,3.49.52,4.92-.64a2.73,2.73,0,0,0-.76-3.18c-4.47,0-9.35-.21-14.5.14C538.6,723.43,538.56,724.33,538.48,725.79Z" transform="translate(-299.27 -202.06)"/><path class="cls-1" d="M513.2,476.5a21.94,21.94,0,0,1,2.36.91c8.11,4.38,16.42,4.52,25,1.32a65.79,65.79,0,0,0,12.72-6.58c1.71-1.1,3.43-2.18,5.42-3.44.07.9.26,1.4.11,1.77A74.76,74.76,0,0,1,545,493.27a81.21,81.21,0,0,1-7.05,6.43,10.73,10.73,0,0,1-2,1.3c-5.23,2.79-8.36,2-12.48-2a20.63,20.63,0,0,1-3.18-4.17,69.72,69.72,0,0,1-7-16.2A8.49,8.49,0,0,1,513.2,476.5Z" transform="translate(-299.27 -202.06)"/><path class="cls-1" d="M492.2,769.74c-1.29,5.11.24,10-1.05,14.67a23.37,23.37,0,0,1-2.86.37c-1.42,0-2.83-.11-4.2-.17a5.56,5.56,0,0,1-.59-1.56q0-12,0-24a4.6,4.6,0,0,1,.49-1.38c2.69-.74,5.39-.34,8.29-.3,5,4.58,9.3,9.92,14.16,14.58,1.26-.23,1.21-1.1,1.22-1.87,0-2.87,0-5.75.06-8.62,0-1.25.21-2.49.33-3.78a14.07,14.07,0,0,1,7.15,0c.78,3.84.84,21.93.08,26.61a17,17,0,0,1-7.86.22c-.94-.14-1.83-1.19-2.6-2-3.45-3.55-6.84-7.16-10.28-10.73C493.91,771.21,493.2,770.64,492.2,769.74Z" transform="translate(-299.27 -202.06)"/><path class="cls-1" d="M575.13,784.33a3.76,3.76,0,0,1-.47-1.27q-.07-11.74-.06-23.48a8,8,0,0,1,.44-1.87,12.45,12.45,0,0,1,2-.37c2.07,0,4.14,0,6.34,0,5.06,4.67,9.4,10,14.26,14.67,1.26-.22,1.21-1.09,1.22-1.86,0-2.87,0-5.75.06-8.62,0-1.25.21-2.49.32-3.78a14,14,0,0,1,7.16,0c.78,3.8.84,21.87.08,26.61-2.51.85-5.22.59-7.85.22-.94-.13-1.84-1.18-2.6-2-3.34-3.43-6.63-6.93-10-10.38-.74-.77-1.56-1.46-2.73-2.54-.81,2.83-.39,5.19-.48,7.5s-.07,4.44-.1,6.53C579.8,785.06,579.63,785.07,575.13,784.33Z" transform="translate(-299.27 -202.06)"/><path class="cls-1" d="M447.63,757.62v5.47a24.47,24.47,0,0,1-3.3.47c-5.27.05-10.53,0-15.8,0a16.85,16.85,0,0,0-3.34.18c-.84.17-1.18,1-1.19,1.85s.32,1.66,1.18,1.83a18.52,18.52,0,0,0,3.33.23c4.15,0,8.3,0,12.45,0,5.49.09,6.76,1.39,6.85,6.83,0,1.92.09,3.84-.05,5.74-.21,2.78-1.79,4.27-4.63,4.47-1.27.1-2.55,0-3.83,0H421.1c-1.58,0-3.16-.08-4.65-.12-.86-2.74-.86-2.74-.22-6,3.7-.38,7.5-.13,11.29-.18s7.3,0,10.64-.07a2.55,2.55,0,0,0,.51-3.58c-1.06-.11-2.29-.33-3.53-.35-3.51,0-7,0-10.54,0-1.11,0-2.24,0-3.35,0-4-.31-5.4-1.63-5.6-5.66a57.18,57.18,0,0,1,.05-7.17c.19-2.59,1.74-4,4.3-4.28a23.83,23.83,0,0,1,2.39-.05c7,0,14.05,0,21.08,0C444.71,757.32,446,757.49,447.63,757.62Z" transform="translate(-299.27 -202.06)"/><path class="cls-1" d="M606.49,723.54c-.15,2.68-.31,5.49-.47,8.36a14.2,14.2,0,0,1-7.15.21c-.88-3.7-1-10.67-.18-15.54,2.22-.74,4.62-.3,7-.37s4.79,0,7.19,0h7c1.44-1.37,1.32-2.72.73-4.37a5.34,5.34,0,0,0-1.61-.52c-4.95-.07-9.9-.07-14.85-.11-1.74,0-3.47-.11-5.22-.16-1-2.08-.72-3.9-.32-5.95,1.19-.11,2.27-.3,3.36-.31,7,0,14.05,0,21.08,0a17.34,17.34,0,0,1,1.91,0,4.4,4.4,0,0,1,4.33,4.26c.16,2.55,0,5.11.08,7.66a5.2,5.2,0,0,1-3.66,5.53c-.72.28-1.4.66-2.29,1.08,2.37,3.26,5.89,5.11,8.22,8.24-1.38,1.33-2.88.85-4.22.85-6.88,0-5,.66-10.19-3.82a50.29,50.29,0,0,1-3.91-3.52A5.62,5.62,0,0,0,606.49,723.54Z" transform="translate(-299.27 -202.06)"/><path class="cls-1" d="M574.39,722.64v3.08c6.67.5,13.2-.05,19.86.34a9.36,9.36,0,0,1,0,5.78,5.29,5.29,0,0,1-1.39.49q-12,.07-24,.08a20.14,20.14,0,0,1-2.54-.34c-1-4.51-.4-9-.46-13.35a129.72,129.72,0,0,1,.18-13.61c3.2-.63,6.22-.3,9.2-.35,3.19-.06,6.39,0,9.58,0h9.18a8.92,8.92,0,0,1,.29,5.86c-3.31,1.1-6.68.4-10,.56-3.16.16-6.35-.2-9.82.32-.13,1.15-.24,2.17-.35,3.22a6.35,6.35,0,0,0,1.51.54c2.85.11,5.7.16,8.68.24a9.88,9.88,0,0,1,.24,5.86C581.4,723,577.66,721.11,574.39,722.64Z" transform="translate(-299.27 -202.06)"/><path class="cls-1" d="M489.3,380.12c2.05,2.9,3.72,5,5.09,7.31a8.3,8.3,0,0,1,.89,3.65c.28,4.61.44,9.23.62,13.85.49,12.59,1.37,25.15,3.05,37.63.59,4.4,1.87,8.71,2.85,13.06.13.58.31,1.15.61,2.27a8.39,8.39,0,0,1-2-.89c-6-5.4-9.48-12.33-12-19.81a13.77,13.77,0,0,1-.45-4.26c0-13.39,0-26.78,0-40.17A59,59,0,0,1,489.3,380.12Z" transform="translate(-299.27 -202.06)"/><path class="cls-1" d="M488,714.35H481l-1.34-2.73H464.83c-1.18,2.25-.53,4.51-.64,6.69s0,4.45,0,6.89a15.85,15.85,0,0,0,2.85.58c4.14.06,8.28,0,12.63,0,.55-2.12,1.62-3.5,4-3.16,1.38.2,2.79.2,4.44.31.09,1.33.26,2.41.23,3.48-.09,3.48-1.62,5.63-5.08,5.76-7.33.28-14.68.28-22,0-3.54-.13-4.94-2.06-5-5.73-.08-5.27-.09-10.54,0-15.8.06-4,1.77-5.79,5.9-5.88,6.54-.13,13.09-.12,19.64,0,4.78.08,6.56,2,6.55,6.81C488.3,712.37,488.16,713.14,488,714.35Z" transform="translate(-299.27 -202.06)"/><path class="cls-1" d="M628.77,773.84c-3.19,1.49-6.71-.06-9.83,1.11a2.39,2.39,0,0,0,.13,3.32c6.24.67,12.77-.12,19.36.47a11.47,11.47,0,0,1,.13,5.58c-4.62,1-9.23.39-13.8.45a126.29,126.29,0,0,1-14-.2,6.15,6.15,0,0,1-.64-1.77q-.06-11.73,0-23.47a7.68,7.68,0,0,1,.44-1.59c4.53-.91,9.14-.36,13.7-.41a118.42,118.42,0,0,1,14,.22c1,1.86.66,3.66.35,5.77-3.49.49-6.83.18-10.14.27s-6.35-.2-9.75.25c-.11,1.21-.2,2.24-.3,3.39,3.37,1.5,6.84,0,10.23,1.12C629.39,770.08,629.16,771.92,628.77,773.84Z" transform="translate(-299.27 -202.06)"/><path class="cls-1" d="M568.17,296.8c.66-.41.91-.7,1.17-.7,2.71,0,5.44-.06,8.14.15,9.22.7,17.91,3.11,25.71,8.26a30.92,30.92,0,0,1,7.8,7c2.51,3.31,2.31,6.5-.53,9.49-2,2.15-5.69,3.82-9.55,1.23a14.94,14.94,0,0,1-2.22-1.82A164.82,164.82,0,0,0,569.49,298,10.36,10.36,0,0,1,568.17,296.8Z" transform="translate(-299.27 -202.06)"/><path class="cls-1" d="M452,784.71c-.75-4.29-.83-22-.17-27,4.45-1,9.06-.33,13.61-.44s9.23,0,13.73,0c1.42,2.05,1,3.86.64,5.91-6.77,1-13.47-.18-20.21.7v3.78l10.27.45a27.73,27.73,0,0,1,.28,3,22.36,22.36,0,0,1-.31,2.81c-3.3,1.29-6.78,0-10.17,1.09v2.9a3.93,3.93,0,0,0,1.25.51c4.62.07,9.25.07,13.88.12,1.56,0,3.13.11,4.69.16a8.11,8.11,0,0,1,.37,5.35c-.51.26-.92.65-1.33.65C469.75,784.72,461,784.71,452,784.71Z" transform="translate(-299.27 -202.06)"/><path class="cls-1" d="M633.65,670a14.3,14.3,0,0,1-2.26,1.26,52.57,52.57,0,0,1-19.84,2.5c-11.29-.68-22-3.75-32.49-7.81a253,253,0,0,1-41.33-21.13c-7.2-4.46-14.24-9.17-21.34-13.79-.78-.51-1.48-1.16-2.72-2.15a6.8,6.8,0,0,1,3.87,1.48,405.25,405.25,0,0,0,57.92,28.63,192.56,192.56,0,0,0,27.86,8.71c9.56,2.16,19.2,3.36,29,2.09A5.93,5.93,0,0,1,633.65,670Z" transform="translate(-299.27 -202.06)"/><path class="cls-1" d="M469.88,497.57c1.5-11.68,14.41-25.38,25.87-27.68a8.84,8.84,0,0,1,.89,2.49,78.94,78.94,0,0,1,0,8.14c-.21,3.67-.6,7.32-1,11a20,20,0,0,1-.82,3c-4.16.28-8.28.38-12.35.88S474.4,496.77,469.88,497.57Z" transform="translate(-299.27 -202.06)"/><path class="cls-1" d="M527.5,704.9c-1.23,1.51-1.84,2.38-2.56,3.15-3.26,3.51-6.51,7-9.84,10.45a6.14,6.14,0,0,0-1.83,4.7c0,2.84.39,5.72-.34,8.62-2.33,1.13-4.64.44-7.06.46-.91-2.09-.53-4-.59-5.88s0-3.82,0-6l-13.49-14.44c.46-1.6,1.6-1.15,2.44-1.17,6.82-.18,6.82-.16,11.5,4.74,1.09,1.14,2.23,2.23,3.51,3.51,3.32-2.23,5.22-5.69,8.41-8.12Z" transform="translate(-299.27 -202.06)"/><path class="cls-1" d="M570.74,757.69v5.57l-5.42.63a85.09,85.09,0,0,0-.06,14.19c1,.16,1.91.32,2.81.44s1.54.16,2.39.25a9.16,9.16,0,0,1,.25,5.41c-3.05,1.2-6.26.48-9.38.59s-6.33,0-9.39-.07c-.77-3-.77-3-.13-6l4.51-.45c1-3.43,1-9.89.15-14.41l-4.68-.55c-1-1.77-.62-3.6-.35-5.37C555,757.16,564.37,757,570.74,757.69Z" transform="translate(-299.27 -202.06)"/><path class="cls-1" d="M537.35,764c-.78,6.78.1,13.47-.56,20.27-2.45.85-4.76.6-7.33.25a28.79,28.79,0,0,1-.41-3.28c0-4.48,0-9,0-13.42,0-1.23-.22-2.47-.36-4l-9.35-.45c-.15-1.14-.33-2-.37-3a24.21,24.21,0,0,1,.22-2.55c3.18-1,6.37-.43,9.5-.54s6.07-.06,9.1,0,6.33-.25,9.58.3a12,12,0,0,1,.1,5.5C544.25,764.17,541,763.11,537.35,764Z" transform="translate(-299.27 -202.06)"/><path class="cls-1" d="M642.56,757.57c1.55-.11,2.65-.25,3.74-.25s2.2.15,3.54.25a27.28,27.28,0,0,1,.44,3.3c.05,4.47,0,9,0,13.42,0,1.24.17,2.48.28,4a94.92,94.92,0,0,0,10.19.22c3.18,0,6.36,0,9.44.06,1.17,1.92.84,3.63.57,5.54a5.86,5.86,0,0,1-1.71.61q-12.47,0-24.94,0a4,4,0,0,1-1.21-.38c-.21-.4-.47-.68-.47-1q-.09-11.26-.14-22.53C642.33,759.92,642.46,759,642.56,757.57Z" transform="translate(-299.27 -202.06)"/><path class="cls-1" d="M622.71,403.51H630a3.22,3.22,0,0,1,3.07,1.91,29.44,29.44,0,0,0,8,9.77,4,4,0,0,1,.83,1.14,12,12,0,0,1,.56,1.26c-3.3.84-18,1-24.79.36-1.65-1.71-1-3.81-1-5.66a48.88,48.88,0,0,0,3.57-4.08A43.26,43.26,0,0,0,622.71,403.51Z" transform="translate(-299.27 -202.06)"/><path class="cls-1" d="M608.63,297.3c-4-1.91-7.52-3.92-11.31-5.4a83.42,83.42,0,0,0-11.88-3.61c-4-.91-8.12-1.3-12.33-1.94a22.68,22.68,0,0,1-.15-9.9C583,277,604.45,289.07,608.63,297.3Z" transform="translate(-299.27 -202.06)"/><path class="cls-1" d="M422.56,662.36c-.32.47-.53,1.17-1,1.37a82.27,82.27,0,0,1-20.45,6.48c-4.48.73-8.91-.24-13.31-1-2.35-.39-4.66-1-7-1.65a12.16,12.16,0,0,1-2-.9c.08-1.3.91-1,1.42-1,4.63,0,9.26-.09,13.88,0a97.57,97.57,0,0,0,23.72-2.59c1.55-.34,3.16-.43,4.73-.63Z" transform="translate(-299.27 -202.06)"/><path class="cls-1" d="M767.76,543.81c1.91,6.22.5,11-3.09,15.18a33.18,33.18,0,0,1-8.66,6.82c.29-1.82.31-1.79,2.16-3.87a41.38,41.38,0,0,0,3.16-4.16,38.32,38.32,0,0,0,2.45-4.08c.8-1.55,1.48-3.16,2.14-4.77C766.5,547.48,767,546,767.76,543.81Z" transform="translate(-299.27 -202.06)"/><path class="cls-1" d="M340.62,667.67a17.3,17.3,0,0,1-2.69,1.2c-4.86.89-9.75,1.66-14.67.58-3.79-.84-7.18-2.37-9.31-6.39,1.88-.33,2.85,1,4.11,1.36s2.72.89,4.1,1.25,3.09.75,4.65,1a41,41,0,0,0,4.26.53c1.43.1,2.87,0,4.3.11S338.09,667.51,340.62,667.67Z" transform="translate(-299.27 -202.06)"/><path class="cls-1" d="M706.35,606.92c-.51,2.64-1.81,4-4,4.52-1.7.42-3.43.73-5.15,1l-16.44,3.06c1.18-1.1,1.51-1.6,2-1.79a35.53,35.53,0,0,1,3.59-1.26q8.71-2.57,17.43-5.08C704.5,607.21,705.26,607.13,706.35,606.92Z" transform="translate(-299.27 -202.06)"/><path class="cls-1" d="M422.65,662.48l.81-.36-.89.25Z" transform="translate(-299.27 -202.06)"/><path d="M538.48,725.79c.08-1.46.12-2.36.18-3.57,5.15-.35,10-.11,14.5-.14a2.73,2.73,0,0,1,.76,3.18c-1.43,1.16-3.25.53-4.92.64s-3.19,0-4.79,0S540.75,725.84,538.48,725.79Z" transform="translate(-299.27 -202.06)"/></svg>