<svg id="visual" viewBox="0 0 900 900" width="900" height="900" xmlns="http://www.w3.org/2000/svg" xmlns:xlink="http://www.w3.org/1999/xlink" version="1.1"><rect x="0" y="0" width="900" height="900" fill="#001220"></rect><path d="M0 542L21.5 522.5C43 503 86 464 128.8 452.2C171.7 440.3 214.3 455.7 257.2 473.2C300 490.7 343 510.3 385.8 506.7C428.7 503 471.3 476 514.2 471.7C557 467.3 600 485.7 642.8 490.7C685.7 495.7 728.3 487.3 771.2 475.5C814 463.7 857 448.3 878.5 440.7L900 433L900 901L878.5 901C857 901 814 901 771.2 901C728.3 901 685.7 901 642.8 901C600 901 557 901 514.2 901C471.3 901 428.7 901 385.8 901C343 901 300 901 257.2 901C214.3 901 171.7 901 128.8 901C86 901 43 901 21.5 901L0 901Z" fill="#0522d6"></path><path d="M0 501L21.5 510.5C43 520 86 539 128.8 547.8C171.7 556.7 214.3 555.3 257.2 560.3C300 565.3 343 576.7 385.8 572.2C428.7 567.7 471.3 547.3 514.2 551C557 554.7 600 582.3 642.8 571.5C685.7 560.7 728.3 511.3 771.2 494.7C814 478 857 494 878.5 502L900 510L900 901L878.5 901C857 901 814 901 771.2 901C728.3 901 685.7 901 642.8 901C600 901 557 901 514.2 901C471.3 901 428.7 901 385.8 901C343 901 300 901 257.2 901C214.3 901 171.7 901 128.8 901C86 901 43 901 21.5 901L0 901Z" fill="#0047e6"></path><path d="M0 646L21.5 646.3C43 646.7 86 647.3 128.8 643.7C171.7 640 214.3 632 257.2 616C300 600 343 576 385.8 578.7C428.7 581.3 471.3 610.7 514.2 635.3C557 660 600 680 642.8 663.5C685.7 647 728.3 594 771.2 572.3C814 550.7 857 560.3 878.5 565.2L900 570L900 901L878.5 901C857 901 814 901 771.2 901C728.3 901 685.7 901 642.8 901C600 901 557 901 514.2 901C471.3 901 428.7 901 385.8 901C343 901 300 901 257.2 901C214.3 901 171.7 901 128.8 901C86 901 43 901 21.5 901L0 901Z" fill="#0064f2"></path><path d="M0 770L21.5 767.2C43 764.3 86 758.7 128.8 750C171.7 741.3 214.3 729.7 257.2 726.5C300 723.3 343 728.7 385.8 723.5C428.7 718.3 471.3 702.7 514.2 705.2C557 707.7 600 728.3 642.8 741.3C685.7 754.3 728.3 759.7 771.2 738.7C814 717.7 857 670.3 878.5 646.7L900 623L900 901L878.5 901C857 901 814 901 771.2 901C728.3 901 685.7 901 642.8 901C600 901 557 901 514.2 901C471.3 901 428.7 901 385.8 901C343 901 300 901 257.2 901C214.3 901 171.7 901 128.8 901C86 901 43 901 21.5 901L0 901Z" fill="#197ffa"></path><path d="M0 790L21.5 781.3C43 772.7 86 755.3 128.8 767.2C171.7 779 214.3 820 257.2 837.8C300 855.7 343 850.3 385.8 839.5C428.7 828.7 471.3 812.3 514.2 805.2C557 798 600 800 642.8 795.5C685.7 791 728.3 780 771.2 787C814 794 857 819 878.5 831.5L900 844L900 901L878.5 901C857 901 814 901 771.2 901C728.3 901 685.7 901 642.8 901C600 901 557 901 514.2 901C471.3 901 428.7 901 385.8 901C343 901 300 901 257.2 901C214.3 901 171.7 901 128.8 901C86 901 43 901 21.5 901L0 901Z" fill="#3f98ff"></path></svg>