<svg id="visual" viewBox="0 0 900 600" width="900" height="600" xmlns="http://www.w3.org/2000/svg" xmlns:xlink="http://www.w3.org/1999/xlink" version="1.1"><rect x="0" y="0" width="900" height="600" fill="#001220"></rect><path d="M0 361L21.5 348C43 335 86 309 128.8 301.2C171.7 293.3 214.3 303.7 257.2 315.3C300 327 343 340 385.8 337.5C428.7 335 471.3 317 514.2 314.2C557 311.3 600 323.7 642.8 327C685.7 330.3 728.3 324.7 771.2 316.7C814 308.7 857 298.3 878.5 293.2L900 288L900 601L878.5 601C857 601 814 601 771.2 601C728.3 601 685.7 601 642.8 601C600 601 557 601 514.2 601C471.3 601 428.7 601 385.8 601C343 601 300 601 257.2 601C214.3 601 171.7 601 128.8 601C86 601 43 601 21.5 601L0 601Z" fill="#0522d6"></path><path d="M0 334L21.5 340.3C43 346.7 86 359.3 128.8 365.2C171.7 371 214.3 370 257.2 373.3C300 376.7 343 384.3 385.8 381.3C428.7 378.3 471.3 364.7 514.2 367C557 369.3 600 387.7 642.8 380.5C685.7 373.3 728.3 340.7 771.2 329.5C814 318.3 857 328.7 878.5 333.8L900 339L900 601L878.5 601C857 601 814 601 771.2 601C728.3 601 685.7 601 642.8 601C600 601 557 601 514.2 601C471.3 601 428.7 601 385.8 601C343 601 300 601 257.2 601C214.3 601 171.7 601 128.8 601C86 601 43 601 21.5 601L0 601Z" fill="#0047e6"></path><path d="M0 430L21.5 430.3C43 430.7 86 431.3 128.8 429C171.7 426.7 214.3 421.3 257.2 410.5C300 399.7 343 383.3 385.8 385C428.7 386.7 471.3 406.3 514.2 422.8C557 439.3 600 452.7 642.8 441.7C685.7 430.7 728.3 395.3 771.2 380.8C814 366.3 857 372.7 878.5 375.8L900 379L900 601L878.5 601C857 601 814 601 771.2 601C728.3 601 685.7 601 642.8 601C600 601 557 601 514.2 601C471.3 601 428.7 601 385.8 601C343 601 300 601 257.2 601C214.3 601 171.7 601 128.8 601C86 601 43 601 21.5 601L0 601Z" fill="#0064f2"></path><path d="M0 513L21.5 511C43 509 86 505 128.8 499.2C171.7 493.3 214.3 485.7 257.2 483.7C300 481.7 343 485.3 385.8 482C428.7 478.7 471.3 468.3 514.2 470C557 471.7 600 485.3 642.8 494C685.7 502.7 728.3 506.3 771.2 492.3C814 478.3 857 446.7 878.5 430.8L900 415L900 601L878.5 601C857 601 814 601 771.2 601C728.3 601 685.7 601 642.8 601C600 601 557 601 514.2 601C471.3 601 428.7 601 385.8 601C343 601 300 601 257.2 601C214.3 601 171.7 601 128.8 601C86 601 43 601 21.5 601L0 601Z" fill="#197ffa"></path><path d="M0 526L21.5 520.3C43 514.7 86 503.3 128.8 511.3C171.7 519.3 214.3 546.7 257.2 558.5C300 570.3 343 566.7 385.8 559.3C428.7 552 471.3 541 514.2 536.2C557 531.3 600 532.7 642.8 529.8C685.7 527 728.3 520 771.2 524.7C814 529.3 857 545.7 878.5 553.8L900 562L900 601L878.5 601C857 601 814 601 771.2 601C728.3 601 685.7 601 642.8 601C600 601 557 601 514.2 601C471.3 601 428.7 601 385.8 601C343 601 300 601 257.2 601C214.3 601 171.7 601 128.8 601C86 601 43 601 21.5 601L0 601Z" fill="#3f98ff"></path></svg>