<svg id="Layer_1" data-name="Layer 1" xmlns="http://www.w3.org/2000/svg" viewBox="0 0 472.71 556.75">
<defs><style>.cls-1{fill:#ee2424;}.cls-2{fill:#2a242a;}</style></defs><rect class="cls-1" x="0.32" y="97.17" width="472.39" height="196.85"/><path class="cls-1" d="M540.18,818.5a305.67,305.67,0,0,1-75.06-26.81c-22.9-11.77-90.84-47.48-131.48-127.25-10.84-21.28-26.89-59.71-29.8-112.16l472.51-1.08a268,268,0,0,1-21.26,95.41c-27.2,63.57-71.87,98.5-93.12,114.69A322.46,322.46,0,0,1,540.18,818.5Z" transform="translate(-303.65 -261.75)"/><rect class="cls-2" x="27.6" y="110.58" width="417.7" height="168"/><path class="cls-2" d="M331.25,538.32H749c1,26.6-.55,84.84-35.45,144.74-55.9,96-154,121.72-173.4,126.41-19.83-4.9-117.72-31.29-173.45-127.49C332.3,622.69,330.37,565.18,331.25,538.32Z" transform="translate(-303.65 -261.75)"/><rect class="cls-1" width="54.89" height="11.74"/><rect class="cls-1" x="83.49" width="54.89" height="11.74"/><rect class="cls-1" x="167.23" width="54.89" height="11.74"/><rect class="cls-1" x="167.23" y="15.7" width="54.89" height="67.32"/><rect class="cls-1" x="83.49" y="15.7" width="54.89" height="67.32"/><rect class="cls-1" y="15.7" width="54.89" height="67.32"/><rect class="cls-1" y="56" width="471.4" height="27.02"/><rect class="cls-1" x="249.28" width="54.89" height="11.74"/><rect class="cls-1" x="332.77" width="54.89" height="11.74"/><rect class="cls-1" x="416.51" width="54.89" height="11.74"/><rect class="cls-1" x="416.51" y="15.7" width="54.89" height="67.32"/><rect class="cls-1" x="332.77" y="15.7" width="54.89" height="67.32"/><rect class="cls-1" x="249.28" y="15.7" width="54.89" height="67.32"/>
</svg>